<?xml version="1.0" encoding="UTF-8"?>
<svg xmlns="http://www.w3.org/2000/svg" viewBox="0 0 1024 1024" width="1024" height="1024" role="img">
  <title>simplified counter-strike radar map</title>
  <defs>
    <style><![CDATA[
      .map-base{fill:#35512b;stroke:#162513;stroke-width:4;stroke-linejoin:round;}
      .map-structure{fill:#6f746b;stroke:none;opacity:.82;}
      .site-orange{fill:#df790b;stroke:none;opacity:.95;}
      .site-green{fill:#1bad3f;stroke:none;opacity:.95;}
    ]]></style>
  </defs>
  <g id="base">
    <path class="map-base" fill-rule="evenodd" d="M 105 236 L 108 240 L 111 321 L 165 323 L 165 348 L 156 355 L 156 394 L 166 395 L 166 484 L 224 484 L 225 474 L 248 474 L 250 484 L 311 484 L 313 487 L 312 490 L 298 490 L 298 678 L 285 691 L 234 691 L 233 742 L 235 752 L 291 752 L 330 829 L 343 829 L 345 832 L 472 873 L 468 866 L 469 862 L 485 858 L 553 824 L 554 820 L 562 815 L 570 825 L 627 825 L 628 780 L 647 781 L 647 821 L 695 821 L 696 817 L 700 817 L 701 821 L 724 821 L 725 817 L 735 817 L 738 825 L 794 825 L 796 821 L 865 819 L 865 785 L 859 784 L 859 772 L 866 771 L 866 729 L 860 729 L 859 726 L 866 725 L 866 693 L 853 692 L 853 642 L 929 641 L 929 597 L 933 595 L 933 551 L 929 548 L 929 506 L 933 502 L 933 481 L 929 478 L 929 436 L 933 433 L 933 426 L 937 425 L 937 386 L 943 383 L 943 357 L 937 355 L 937 321 L 924 320 L 924 232 L 880 234 L 879 205 L 856 199 L 774 199 L 772 193 L 782 190 L 781 157 L 620 162 L 619 157 L 549 157 L 549 201 L 545 212 L 448 212 L 447 173 L 345 173 L 343 162 L 295 161 L 290 167 L 266 167 L 265 178 L 257 179 L 256 164 L 225 164 L 224 168 L 169 173 L 158 228 L 115 226 Z M 800 771 L 811 773 L 810 784 L 798 783 Z M 763 771 L 774 773 L 773 784 L 761 783 Z M 724 772 L 735 771 L 736 783 L 725 784 Z M 902 597 L 901 615 L 827 615 L 826 731 L 799 731 L 798 728 L 772 728 L 770 731 L 762 731 L 761 728 L 700 731 L 699 795 L 670 795 L 670 762 L 680 761 L 680 722 L 659 720 L 659 692 L 686 690 L 687 664 L 699 665 L 699 690 L 814 690 L 814 597 Z M 350 580 L 390 582 L 389 586 L 385 586 L 385 651 L 405 651 L 405 639 L 417 638 L 418 651 L 465 651 L 485 661 L 485 679 L 479 680 L 479 764 L 485 765 L 483 784 L 469 791 L 448 791 L 447 786 L 365 785 L 365 781 L 370 780 L 370 766 L 357 760 L 354 673 L 369 672 L 369 649 L 345 647 L 345 595 Z M 425 503 L 498 504 L 497 509 L 480 509 L 480 556 L 488 557 L 488 567 L 480 568 L 480 593 L 498 594 L 498 599 L 466 599 L 465 611 L 451 611 L 450 599 L 418 598 L 418 586 L 414 586 L 413 581 L 424 580 Z M 865 415 L 868 414 L 871 419 L 936 418 L 937 421 L 867 423 Z M 189 430 L 190 394 L 251 395 L 250 398 L 221 398 L 220 431 Z M 458 367 L 459 405 L 462 411 L 426 412 L 426 426 L 422 427 L 421 388 L 453 387 L 453 368 Z M 936 358 L 939 359 L 938 383 L 935 382 Z M 456 325 L 457 348 L 401 348 L 401 426 L 391 428 L 391 496 L 403 497 L 404 507 L 391 509 L 390 525 L 376 525 L 375 507 L 357 507 L 356 490 L 335 489 L 336 438 L 286 438 L 273 413 L 272 395 L 340 393 L 342 322 Z M 921 314 L 923 322 L 919 318 L 870 318 L 868 382 L 865 383 L 865 317 L 868 314 Z M 272 308 L 273 330 L 255 331 L 255 327 L 268 326 L 268 310 Z M 195 308 L 199 309 L 199 326 L 213 327 L 213 331 L 194 330 Z M 342 268 L 352 269 L 351 283 L 341 282 Z M 835 255 L 854 274 L 854 290 L 866 291 L 866 310 L 861 312 L 859 396 L 864 397 L 864 537 L 858 543 L 785 543 L 783 562 L 759 563 L 759 621 L 755 622 L 754 649 L 743 647 L 743 623 L 688 625 L 687 622 L 612 622 L 611 643 L 597 643 L 595 639 L 571 639 L 570 643 L 551 643 L 550 599 L 526 597 L 527 593 L 545 592 L 545 536 L 532 533 L 532 509 L 528 509 L 526 504 L 565 503 L 566 531 L 753 531 L 753 358 L 739 357 L 730 350 L 731 274 L 749 256 Z M 255 246 L 273 247 L 272 268 L 268 266 L 268 250 L 255 250 Z M 213 246 L 213 250 L 199 251 L 199 267 L 195 268 L 194 247 Z M 257 200 L 265 201 L 264 209 L 256 208 Z M 757 192 L 756 199 L 695 199 L 675 203 L 675 225 L 688 226 L 693 268 L 692 280 L 677 280 L 677 295 L 692 295 L 693 307 L 675 308 L 678 385 L 641 405 L 518 405 L 499 367 L 499 351 L 502 349 L 501 277 L 402 277 L 397 228 L 341 227 L 342 207 L 347 210 L 406 210 L 404 261 L 414 271 L 619 273 L 620 189 L 672 191 L 674 188 L 718 188 L 719 191 Z"/>
  </g>
  <g id="structure" />
  <g id="orange-overlays">
    <path class="site-orange" fill-rule="evenodd" d="M 521 770 L 522 809 L 568 809 L 523 809 Z"/>
  </g>
  <g id="green-overlays">
    <path class="site-green" fill-rule="evenodd" d="M 353 717 L 352 772 L 349 774 L 308 774 L 296 749 L 284 749 L 293 749 L 297 753 L 306 774 L 353 774 Z"/>
    <path class="site-green" fill-rule="evenodd" d="M 283 693 L 288 694 L 302 679 L 302 660 L 305 653 L 351 654 L 352 671 L 353 653 L 303 652 L 301 655 L 301 678 L 289 691 Z"/>
    <path class="site-green" fill-rule="evenodd" d="M 936 329 L 935 418 L 932 420 L 871 420 L 867 414 L 866 392 L 867 422 L 936 421 L 936 383 L 938 382 Z"/>
    <path class="site-green" fill-rule="evenodd" d="M 921 315 L 868 315 L 866 317 L 866 385 L 868 376 L 869 318 L 919 317 L 923 324 L 929 323 L 924 323 Z"/>
  </g>

  <defs>
    <marker id="arrowPush" markerWidth="10" markerHeight="7" refX="9" refY="3.5" orient="auto">
      <polygon points="0 0, 10 3.5, 0 7" fill="#FFFFFF"/>
    </marker>
    <marker id="arrowThrow" markerWidth="10" markerHeight="7" refX="9" refY="3.5" orient="auto">
      <polygon points="0 0, 10 3.5, 0 7" fill="#FFD600"/>
    </marker>
  </defs>
<rect x="0" y="0" width="1024" height="1024" fill="black" opacity="0.15"/>
<polygon points="687.104,250.88 753.664,250.88 750.592,433.152 688.128,433.152" fill="rgba(100,100,255,0.12)" stroke="rgba(255,255,255,0.3)" stroke-width="1"/>
<text x="719.8720000000001" y="342.016" font-size="9" fill="rgba(255,255,255,0.6)" text-anchor="middle" dominant-baseline="middle" font-family="sans-serif">T Spawn</text>
<polygon points="683.008,244.73600000000002 739.328,246.784 739.328,186.368 703.488,186.368 702.464,158.72 538.624,159.744 537.6,273.408 582.6560000000001,271.36 585.7280000000001,218.112 599.04,204.8 665.6,205.824 679.936,219.136" fill="rgba(100,255,100,0.10)" stroke="rgba(255,255,255,0.3)" stroke-width="1"/>
<text x="646.144" y="214.016" font-size="9" fill="rgba(255,255,255,0.6)" text-anchor="middle" dominant-baseline="middle" font-family="sans-serif">Side Alley</text>
<polygon points="604.16,159.744 605.184,185.344 654.336,186.368 655.36,159.744" fill="rgba(100,255,100,0.10)" stroke="rgba(255,255,255,0.3)" stroke-width="1"/>
<text x="629.76" y="172.032" font-size="9" fill="rgba(255,255,255,0.6)" text-anchor="middle" dominant-baseline="middle" font-family="sans-serif">Apps Ramp</text>
<polygon points="560.128,161.792 561.152,184.32 599.04,185.344 600.064,161.792" fill="rgba(200,200,200,0.08)" stroke="rgba(255,255,255,0.3)" stroke-width="1"/>
<text x="580.6080000000001" y="173.056" font-size="9" fill="rgba(255,255,255,0.6)" text-anchor="middle" dominant-baseline="middle" font-family="sans-serif">Cart</text>
<polygon points="495.616,128 495.616,151.552 625.664,153.6 625.664,126.976" fill="rgba(200,200,200,0.08)" stroke="rgba(255,255,255,0.3)" stroke-width="1"/>
<text x="561.152" y="139.264" font-size="9" fill="rgba(255,255,255,0.6)" text-anchor="middle" dominant-baseline="middle" font-family="sans-serif">House</text>
<polygon points="570.368,126.976 571.392,141.312 601.088,142.336 602.112,125.952" fill="rgba(200,200,200,0.08)" stroke="rgba(255,255,255,0.3)" stroke-width="1"/>
<text x="586.7520000000001" y="134.144" font-size="9" fill="rgba(255,255,255,0.6)" text-anchor="middle" dominant-baseline="middle" font-family="sans-serif">TV</text>
<polygon points="438.272,125.952 496.64,125.952 494.592,192.512 359.42400000000004,191.488 357.37600000000003,172.032 438.272,171.008" fill="rgba(100,255,100,0.10)" stroke="rgba(255,255,255,0.3)" stroke-width="1"/>
<text x="431.104" y="162.816" font-size="9" fill="rgba(255,255,255,0.6)" text-anchor="middle" dominant-baseline="middle" font-family="sans-serif">Back Alley</text>
<polygon points="495.616,220.16 496.64,193.536 347.136,193.536 347.136,401.408 361.472,402.432 364.544,220.16" fill="rgba(200,200,200,0.08)" stroke="rgba(255,255,255,0.3)" stroke-width="1"/>
<text x="402.432" y="271.36" font-size="9" fill="rgba(255,255,255,0.6)" text-anchor="middle" dominant-baseline="middle" font-family="sans-serif">Underpass</text>
<polygon points="321.536,216.064 351.232,217.088 351.232,139.264 280.576,140.288 278.528,130.048 179.20000000000002,129.024 179.20000000000002,166.912 321.536,168.96" fill="rgba(200,200,200,0.08)" stroke="rgba(255,255,255,0.3)" stroke-width="1"/>
<text x="282.624" y="162.816" font-size="9" fill="rgba(255,255,255,0.6)" text-anchor="middle" dominant-baseline="middle" font-family="sans-serif">Apartments</text>
<polygon points="134.144,140.288 125.952,184.32 175.104,169.984 174.08,136.192" fill="rgba(200,200,200,0.08)" stroke="rgba(255,255,255,0.3)" stroke-width="1"/>
<text x="152.576" y="157.696" font-size="9" fill="rgba(255,255,255,0.6)" text-anchor="middle" dominant-baseline="middle" font-family="sans-serif">Van</text>
<polygon points="179.20000000000002,156.672 179.20000000000002,172.032 243.71200000000002,172.032 243.71200000000002,156.672" fill="rgba(200,200,200,0.08)" stroke="rgba(255,255,255,0.3)" stroke-width="1"/>
<text x="211.96800000000002" y="163.84" font-size="9" fill="rgba(255,255,255,0.6)" text-anchor="middle" dominant-baseline="middle" font-family="sans-serif">Balcony</text>
<polygon points="153.6,196.608 153.6,266.24 220.16,266.24 219.136,196.608" fill="rgba(255,200,0,0.15)" stroke="rgba(255,255,255,0.3)" stroke-width="1"/>
<text x="186.368" y="231.424" font-size="9" fill="rgba(255,255,255,0.6)" text-anchor="middle" dominant-baseline="middle" font-family="sans-serif">B Site</text>
<polygon points="182.272,233.472 182.272,262.144 201.728,262.144 202.752,233.472" fill="rgba(200,200,200,0.08)" stroke="rgba(255,255,255,0.3)" stroke-width="1"/>
<text x="192.512" y="247.808" font-size="9" fill="rgba(255,255,255,0.6)" text-anchor="middle" dominant-baseline="middle" font-family="sans-serif">B Default</text>
<polygon points="89.08800000000001,258.048 130.048,258.048 135.168,185.344 86.016,183.296" fill="rgba(200,200,200,0.08)" stroke="rgba(255,255,255,0.3)" stroke-width="1"/>
<text x="110.592" y="221.184" font-size="9" fill="rgba(255,255,255,0.6)" text-anchor="middle" dominant-baseline="middle" font-family="sans-serif">Bench</text>
<polygon points="263.168,185.344 290.81600000000003,185.344 288.76800000000003,259.072 265.216,256" fill="rgba(200,200,200,0.08)" stroke="rgba(255,255,255,0.3)" stroke-width="1"/>
<text x="277.504" y="221.184" font-size="9" fill="rgba(255,255,255,0.6)" text-anchor="middle" dominant-baseline="middle" font-family="sans-serif">Arches</text>
<polygon points="365.568,325.632 412.672,326.656 400.384,299.008 399.36,222.208 321.536,222.208 317.44,187.392 293.88800000000003,185.344 293.88800000000003,258.048 366.592,264.192" fill="rgba(100,255,100,0.10)" stroke="rgba(255,255,255,0.3)" stroke-width="1"/>
<text x="352.25600000000003" y="253.952" font-size="9" fill="rgba(255,255,255,0.6)" text-anchor="middle" dominant-baseline="middle" font-family="sans-serif">B Short</text>
<polygon points="243.71200000000002,281.6 270.336,278.528 272.384,315.392 236.544,316.416" fill="rgba(200,200,200,0.08)" stroke="rgba(255,255,255,0.3)" stroke-width="1"/>
<text x="256" y="297.984" font-size="9" fill="rgba(255,255,255,0.6)" text-anchor="middle" dominant-baseline="middle" font-family="sans-serif">E Box</text>
<polygon points="131.072,315.392 152.576,315.392 151.552,344.064 176.12800000000001,344.064 177.15200000000002,314.368 217.088,315.392 228.352,349.184 270.336,351.232 270.336,391.168 132.096,389.12" fill="rgba(200,200,200,0.08)" stroke="rgba(255,255,255,0.3)" stroke-width="1"/>
<text x="190.464" y="342.016" font-size="9" fill="rgba(255,255,255,0.6)" text-anchor="middle" dominant-baseline="middle" font-family="sans-serif">Kitchen</text>
<polygon points="137.216,373.76 179.20000000000002,373.76 179.20000000000002,389.12 137.216,388.096" fill="rgba(200,200,200,0.08)" stroke="rgba(255,255,255,0.3)" stroke-width="1"/>
<text x="158.72" y="380.928" font-size="9" fill="rgba(255,255,255,0.6)" text-anchor="middle" dominant-baseline="middle" font-family="sans-serif">Sneaky</text>
<polygon points="130.048,336.896 151.552,336.896 154.624,311.296 128,310.272" fill="rgba(200,200,200,0.08)" stroke="rgba(255,255,255,0.3)" stroke-width="1"/>
<text x="141.312" y="323.584" font-size="9" fill="rgba(255,255,255,0.6)" text-anchor="middle" dominant-baseline="middle" font-family="sans-serif">Door</text>
<polygon points="177.15200000000002,312.32 177.15200000000002,332.8 221.184,332.8 219.136,314.368" fill="rgba(200,200,200,0.08)" stroke="rgba(255,255,255,0.3)" stroke-width="1"/>
<text x="198.656" y="322.56" font-size="9" fill="rgba(255,255,255,0.6)" text-anchor="middle" dominant-baseline="middle" font-family="sans-serif">B Window</text>
<polygon points="240.64000000000001,623.616 281.6,620.544 280.576,540.672 295.936,540.672 294.91200000000003,520.192 276.48,520.192 276.48,393.216 239.616,395.264 239.616,544.768 229.376,555.008 186.368,553.984 187.392,604.16 232.448,603.136" fill="rgba(100,100,255,0.12)" stroke="rgba(255,255,255,0.3)" stroke-width="1"/>
<text x="250.88" y="539.648" font-size="9" fill="rgba(255,255,255,0.6)" text-anchor="middle" dominant-baseline="middle" font-family="sans-serif">CT Spawn</text>
<polygon points="273.408,666.624 291.84000000000003,628.736 375.808,630.784 386.048,702.464" fill="rgba(200,200,200,0.08)" stroke="rgba(255,255,255,0.3)" stroke-width="1"/>
<text x="331.776" y="656.384" font-size="9" fill="rgba(255,255,255,0.6)" text-anchor="middle" dominant-baseline="middle" font-family="sans-serif">CT</text>
<polygon points="353.28000000000003,628.736 350.208,648.192 376.832,648.192 374.784,628.736" fill="rgba(200,200,200,0.08)" stroke="rgba(255,255,255,0.3)" stroke-width="1"/>
<text x="363.52" y="637.952" font-size="9" fill="rgba(255,255,255,0.6)" text-anchor="middle" dominant-baseline="middle" font-family="sans-serif">Trash</text>
<polygon points="353.28000000000003,665.6 361.472,694.272 393.216,684.032 387.072,657.408" fill="rgba(200,200,200,0.08)" stroke="rgba(255,255,255,0.3)" stroke-width="1"/>
<text x="373.76" y="674.816" font-size="9" fill="rgba(255,255,255,0.6)" text-anchor="middle" dominant-baseline="middle" font-family="sans-serif">Ticket Booth</text>
<polygon points="365.568,329.728 366.592,402.432 452.608,402.432 451.584,424.96000000000004 599.04,425.98400000000004 602.112,293.88800000000003 514.048,322.56" fill="rgba(100,255,100,0.10)" stroke="rgba(255,255,255,0.3)" stroke-width="1"/>
<text x="479.232" y="371.712" font-size="9" fill="rgba(255,255,255,0.6)" text-anchor="middle" dominant-baseline="middle" font-family="sans-serif">Mid</text>
<polygon points="525.312,320.512 526.336,425.98400000000004 599.04,427.008 600.064,295.936" fill="rgba(100,255,100,0.10)" stroke="rgba(255,255,255,0.3)" stroke-width="1"/>
<text x="563.2" y="366.592" font-size="9" fill="rgba(255,255,255,0.6)" text-anchor="middle" dominant-baseline="middle" font-family="sans-serif">Top Mid</text>
<polygon points="547.84,368.64 546.816,397.312 576.5120000000001,396.288 578.5600000000001,359.42400000000004" fill="rgba(100,255,100,0.10)" stroke="rgba(255,255,255,0.3)" stroke-width="1"/>
<text x="562.176" y="379.904" font-size="9" fill="rgba(255,255,255,0.6)" text-anchor="middle" dominant-baseline="middle" font-family="sans-serif">Mid Boxes</text>
<polygon points="450.56,401.408 488.44800000000004,402.432 486.40000000000003,422.91200000000003 452.608,422.91200000000003" fill="rgba(200,200,200,0.08)" stroke="rgba(255,255,255,0.3)" stroke-width="1"/>
<text x="470.016" y="411.648" font-size="9" fill="rgba(255,255,255,0.6)" text-anchor="middle" dominant-baseline="middle" font-family="sans-serif">Chair</text>
<polygon points="365.568,328.704 363.52,356.35200000000003 506.88,354.30400000000003 506.88,322.56" fill="rgba(100,255,100,0.10)" stroke="rgba(255,255,255,0.3)" stroke-width="1"/>
<text x="436.224" y="339.968" font-size="9" fill="rgba(255,255,255,0.6)" text-anchor="middle" dominant-baseline="middle" font-family="sans-serif">Catwalk</text>
<polygon points="319.488,278.528 319.488,309.248 360.448,308.224 361.472,280.576" fill="rgba(200,200,200,0.08)" stroke="rgba(255,255,255,0.3)" stroke-width="1"/>
<text x="339.968" y="293.88800000000003" font-size="9" fill="rgba(255,255,255,0.6)" text-anchor="middle" dominant-baseline="middle" font-family="sans-serif">Ladder Room</text>
<polygon points="311.296,313.344 303.104,462.848 338.944,465.92 338.944,311.296" fill="rgba(200,200,200,0.08)" stroke="rgba(255,255,255,0.3)" stroke-width="1"/>
<text x="323.584" y="388.096" font-size="9" fill="rgba(255,255,255,0.6)" text-anchor="middle" dominant-baseline="middle" font-family="sans-serif">Window</text>
<polygon points="306.176,467.968 306.176,519.168 360.448,523.264 359.42400000000004,481.28000000000003 336.896,482.30400000000003 333.824,470.016" fill="rgba(200,200,200,0.08)" stroke="rgba(255,255,255,0.3)" stroke-width="1"/>
<text x="333.824" y="490.49600000000004" font-size="9" fill="rgba(255,255,255,0.6)" text-anchor="middle" dominant-baseline="middle" font-family="sans-serif">Jungle</text>
<polygon points="382.976,408.576 381.952,474.112 435.2,473.088 435.2,428.032 424.96000000000004,429.056 424.96000000000004,408.576" fill="rgba(100,255,100,0.10)" stroke="rgba(255,255,255,0.3)" stroke-width="1"/>
<text x="414.72" y="436.224" font-size="9" fill="rgba(255,255,255,0.6)" text-anchor="middle" dominant-baseline="middle" font-family="sans-serif">Connector</text>
<polygon points="558.08,500.736 559.104,555.008 640,555.008 638.976,450.56 606.208,452.608 605.184,517.12 594.944,516.096 593.92,499.712" fill="rgba(200,200,200,0.08)" stroke="rgba(255,255,255,0.3)" stroke-width="1"/>
<text x="600.064" y="505.856" font-size="9" fill="rgba(255,255,255,0.6)" text-anchor="middle" dominant-baseline="middle" font-family="sans-serif">Pit</text>
<polygon points="701.44,479.232 703.488,466.944 637.952,467.968 638.976,553.984 650.24,553.984 650.24,480.25600000000003" fill="rgba(200,200,200,0.08)" stroke="rgba(255,255,255,0.3)" stroke-width="1"/>
<text x="663.552" y="499.712" font-size="9" fill="rgba(255,255,255,0.6)" text-anchor="middle" dominant-baseline="middle" font-family="sans-serif">T Roof</text>
<polygon points="477.184,515.072 473.088,529.408 500.736,528.384 500.736,509.952 510.976,505.856 509.952,495.616 487.42400000000004,497.664 488.44800000000004,514.048" fill="rgba(200,200,200,0.08)" stroke="rgba(255,255,255,0.3)" stroke-width="1"/>
<text x="493.568" y="512" font-size="9" fill="rgba(255,255,255,0.6)" text-anchor="middle" dominant-baseline="middle" font-family="sans-serif">Tetris</text>
<polygon points="506.88,576.5120000000001 542.72,575.488 545.792,608.256 535.552,609.28 535.552,635.904 558.08,636.928 558.08,584.7040000000001 658.432,584.7040000000001 660.48,493.568 720.896,493.568 718.8480000000001,515.072 681.984,514.048 680.96,555.008 693.248,555.008 692.224,658.432 517.12,660.48 517.12,626.688 506.88,623.616" fill="rgba(200,200,200,0.08)" stroke="rgba(255,255,255,0.3)" stroke-width="1"/>
<text x="602.112" y="583.6800000000001" font-size="9" fill="rgba(255,255,255,0.6)" text-anchor="middle" dominant-baseline="middle" font-family="sans-serif">Palace</text>
<polygon points="431.104,480.25600000000003 430.08,535.552 451.584,535.552 454.656,516.096 439.296,515.072 441.344,482.30400000000003" fill="rgba(200,200,200,0.08)" stroke="rgba(255,255,255,0.3)" stroke-width="1"/>
<text x="441.344" y="509.952" font-size="9" fill="rgba(255,255,255,0.6)" text-anchor="middle" dominant-baseline="middle" font-family="sans-serif">Stairs</text>
<polygon points="453.632,515.072 452.608,534.528 468.992,535.552 467.968,514.048" fill="rgba(200,200,200,0.08)" stroke="rgba(255,255,255,0.3)" stroke-width="1"/>
<text x="460.8" y="524.288" font-size="9" fill="rgba(255,255,255,0.6)" text-anchor="middle" dominant-baseline="middle" font-family="sans-serif">Sandwich</text>
<polygon points="401.408,594.944 404.48,652.288 478.208,653.312 486.40000000000003,592.896" fill="rgba(255,200,0,0.15)" stroke="rgba(255,255,255,0.3)" stroke-width="1"/>
<text x="442.368" y="622.592" font-size="9" fill="rgba(255,255,255,0.6)" text-anchor="middle" dominant-baseline="middle" font-family="sans-serif">A Site</text>
<polygon points="483.32800000000003,627.712 472.064,658.432 500.736,660.48 501.76,626.688" fill="rgba(200,200,200,0.08)" stroke="rgba(255,255,255,0.3)" stroke-width="1"/>
<text x="489.47200000000004" y="643.072" font-size="9" fill="rgba(255,255,255,0.6)" text-anchor="middle" dominant-baseline="middle" font-family="sans-serif">Firebox</text>
<polygon points="431.104,646.144 433.152,658.432 454.656,655.36 454.656,641.024" fill="rgba(200,200,200,0.08)" stroke="rgba(255,255,255,0.3)" stroke-width="1"/>
<text x="443.392" y="650.24" font-size="9" fill="rgba(255,255,255,0.6)" text-anchor="middle" dominant-baseline="middle" font-family="sans-serif">Ninja</text>
<polygon points="399.36,595.968 406.528,617.472 436.224,607.232 435.2,590.848" fill="rgba(200,200,200,0.08)" stroke="rgba(255,255,255,0.3)" stroke-width="1"/>
<text x="419.84000000000003" y="602.112" font-size="9" fill="rgba(255,255,255,0.6)" text-anchor="middle" dominant-baseline="middle" font-family="sans-serif">Triple</text>
<polygon points="463.872,592.896 454.656,618.496 479.232,621.568 486.40000000000003,592.896" fill="rgba(200,200,200,0.08)" stroke="rgba(255,255,255,0.3)" stroke-width="1"/>
<text x="471.04" y="606.208" font-size="9" fill="rgba(255,255,255,0.6)" text-anchor="middle" dominant-baseline="middle" font-family="sans-serif">A Default</text>
<line x1="618.496" y1="609.28" x2="439.296" y2="634.88" stroke="#EF5350" stroke-width="2.5"  marker-end="url(#arrowPush)" opacity="0.85"/>
<line x1="647.168" y1="507.904" x2="311.296" y2="660.48" stroke="#9E9E9E" stroke-width="2.5" stroke-dasharray="8,4" marker-end="url(#arrowThrow)" opacity="0.85"/>
<line x1="647.168" y1="507.904" x2="330.752" y2="503.808" stroke="#9E9E9E" stroke-width="2.5" stroke-dasharray="8,4" marker-end="url(#arrowThrow)" opacity="0.85"/>
<line x1="570.368" y1="331.776" x2="439.296" y2="634.88" stroke="#FFD600" stroke-width="2.5" stroke-dasharray="8,4" marker-end="url(#arrowThrow)" opacity="0.85"/>
<line x1="440.32" y1="348.16" x2="431.104" y2="501.76" stroke="#EF5350" stroke-width="2.5"  marker-end="url(#arrowPush)" opacity="0.85"/>
<line x1="647.168" y1="507.904" x2="311.296" y2="660.48" stroke="#9E9E9E" stroke-width="1.5" stroke-dasharray="4,3" opacity="0.6"/>
<circle cx="311.296" cy="660.48" r="10" fill="#9E9E9E" stroke="white" stroke-width="1" opacity="0.9"/>
<text x="311.296" y="661.48" font-size="10" font-weight="bold" fill="white" text-anchor="middle" dominant-baseline="middle" font-family="sans-serif">S</text>
<text x="311.296" y="646.48" font-size="7" fill="white" text-anchor="middle" font-family="sans-serif">CT Smoke</text>
<line x1="647.168" y1="507.904" x2="330.752" y2="503.808" stroke="#9E9E9E" stroke-width="1.5" stroke-dasharray="4,3" opacity="0.6"/>
<circle cx="330.752" cy="503.808" r="10" fill="#9E9E9E" stroke="white" stroke-width="1" opacity="0.9"/>
<text x="330.752" y="504.808" font-size="10" font-weight="bold" fill="white" text-anchor="middle" dominant-baseline="middle" font-family="sans-serif">S</text>
<text x="330.752" y="489.808" font-size="7" fill="white" text-anchor="middle" font-family="sans-serif">Jungle Smoke</text>
<line x1="570.368" y1="331.776" x2="439.296" y2="634.88" stroke="#FFD600" stroke-width="1.5" stroke-dasharray="4,3" opacity="0.6"/>
<polygon points="439.296,624.88 441.9410336353161,631.2394235253128 448.80656516295153,631.7898300562505 443.57575432332817,636.2705764746872 445.17385252292473,642.9701699437495 439.296,639.38 433.41814747707525,642.9701699437495 435.0162456766718,636.2705764746872 429.78543483704846,631.7898300562505 436.6509663646839,631.2394235253128" fill="#FFD600" stroke="white" stroke-width="1" opacity="0.9"/>
<text x="439.296" y="635.88" font-size="10" font-weight="bold" fill="white" text-anchor="middle" dominant-baseline="middle" font-family="sans-serif">F</text>
<text x="439.296" y="620.88" font-size="7" fill="white" text-anchor="middle" font-family="sans-serif">Pop Flash</text>
<circle cx="721.896" cy="310.248" r="14" fill="rgba(0,0,0,0.4)"/>
<circle cx="720.896" cy="309.248" r="14" fill="#EF5350" stroke="white" stroke-width="2"/>
<text x="720.896" y="310.248" font-size="13" font-weight="bold" fill="white" text-anchor="middle" dominant-baseline="middle" font-family="sans-serif">I</text>
<circle cx="571.368" cy="332.776" r="14" fill="rgba(0,0,0,0.4)"/>
<circle cx="570.368" cy="331.776" r="14" fill="#EF5350" stroke="white" stroke-width="2"/>
<text x="570.368" y="332.776" font-size="13" font-weight="bold" fill="white" text-anchor="middle" dominant-baseline="middle" font-family="sans-serif">A</text>
<circle cx="619.496" cy="610.28" r="14" fill="rgba(0,0,0,0.4)"/>
<circle cx="618.496" cy="609.28" r="14" fill="#EF5350" stroke="white" stroke-width="2"/>
<text x="618.496" y="610.28" font-size="13" font-weight="bold" fill="white" text-anchor="middle" dominant-baseline="middle" font-family="sans-serif">E</text>
<circle cx="630.76" cy="180.20000000000002" r="14" fill="rgba(0,0,0,0.4)"/>
<circle cx="629.76" cy="179.20000000000002" r="14" fill="#EF5350" stroke="white" stroke-width="2"/>
<text x="629.76" y="180.20000000000002" font-size="13" font-weight="bold" fill="white" text-anchor="middle" dominant-baseline="middle" font-family="sans-serif">L</text>
<circle cx="441.32" cy="349.16" r="14" fill="rgba(0,0,0,0.4)"/>
<circle cx="440.32" cy="348.16" r="14" fill="#EF5350" stroke="white" stroke-width="2"/>
<text x="440.32" y="349.16" font-size="13" font-weight="bold" fill="white" text-anchor="middle" dominant-baseline="middle" font-family="sans-serif">S</text>
<rect x="825" y="10" width="185" height="72" rx="4" fill="rgba(0,0,0,0.65)" stroke="rgba(255,255,255,0.2)" stroke-width="1"/><circle cx="840" cy="26" r="6" fill="#EF5350" stroke="white" stroke-width="1.5"/><text x="852" y="26" font-size="9" fill="white" dominant-baseline="middle" font-family="sans-serif">T Player</text><circle cx="840" cy="46" r="5" fill="#9E9E9E" stroke="white" stroke-width="1"/><text x="852" y="46" font-size="9" fill="white" dominant-baseline="middle" font-family="sans-serif">Smoke</text><circle cx="840" cy="66" r="5" fill="#FFD600" stroke="white" stroke-width="1"/><text x="852" y="66" font-size="9" fill="white" dominant-baseline="middle" font-family="sans-serif">Flash</text>
<rect x="0" y="0" width="1024" height="36" fill="rgba(0,0,0,0.55)"/>
<text x="12" y="24" font-size="18" font-weight="bold" fill="white" font-family="sans-serif">Mirage A Execute</text>
<text x="1012" y="24" font-size="14" fill="#EF5350" text-anchor="end" font-family="sans-serif">T Side</text>
</svg>