<?xml version="1.0" encoding="UTF-8"?>
<svg width="1024" height="1024" viewBox="0 0 1024 1024" xmlns="http://www.w3.org/2000/svg" role="img" aria-label="Clean vector map shapes">
  <title>de_ancient clean map shapes</title>
  <desc>Vectorized flat shapes from the provided radar image, with textures removed. ViewBox matches the original 1024 by 1024 image.</desc>
  <defs>
    <style>
      .map-base { fill: #3f5a2b; }
      .map-outline { fill: none; stroke: #1c2a18; stroke-width: 3; stroke-linejoin: round; stroke-linecap: round; }
      .marker-orange { fill: #d86c10; }
      .marker-green { fill: #1ba83a; }
    </style>
  </defs>

  <g id="map-shape">
    <path class="map-base" fill-rule="evenodd" d="
      M 578 77 L 455 77 L 455 139 L 453 146 L 441 146 L 440 141 L 436 141 L 434 139 L 434 135 L 408 135 L 408 139 L 406 141 L 379 141 L 377 139 L 377 135 L 351 135 L 351 139 L 348 141 L 347 146 L 334 146 L 332 132 L 295 132 L 294 147 L 291 148 L 291 170 L 294 172 L 293 192 L 286 192 L 284 194 L 270 194 L 269 192 L 218 192 L 217 178 L 157 178 L 157 363 L 159 364 L 159 369 L 163 371 L 163 385 L 160 386 L 157 391 L 133 391 L 133 397 L 127 399 L 127 421 L 133 423 L 133 435 L 151 436 L 151 456 L 147 457 L 147 528 L 183 528 L 184 516 L 211 516 L 213 518 L 213 535 L 216 536 L 216 552 L 214 554 L 208 554 L 207 558 L 203 558 L 202 581 L 166 581 L 165 585 L 161 585 L 160 634 L 199 640 L 242 685 L 267 729 L 281 743 L 321 753 L 371 771 L 402 772 L 440 801 L 442 913 L 465 928 L 512 927 L 514 936 L 546 930 L 547 809 L 688 809 L 690 811 L 690 863 L 739 858 L 740 765 L 750 738 L 752 736 L 839 736 L 839 641 L 820 641 L 811 620 L 815 618 L 821 630 L 824 616 L 827 611 L 869 611 L 869 511 L 855 510 L 855 457 L 841 455 L 841 440 L 836 426 L 833 426 L 831 423 L 827 400 L 823 399 L 823 388 L 855 386 L 855 333 L 872 332 L 872 243 L 852 242 L 851 233 L 788 233 L 786 242 L 585 243 L 585 268 L 569 269 L 568 248 L 556 247 L 556 229 L 578 228 Z
      M 465 839 L 467 837 L 512 837 L 513 858 L 508 860 L 466 859 Z
      M 287 668 L 289 666 L 334 666 L 336 668 L 336 701 L 288 702 Z
      M 367 726 L 367 604 L 369 602 L 435 602 L 437 605 L 437 611 L 547 611 L 548 607 L 597 607 L 599 616 L 689 616 L 690 606 L 769 606 L 770 611 L 791 612 L 791 640 L 775 641 L 774 679 L 729 721 L 687 721 L 686 789 L 547 789 L 546 763 L 519 758 L 517 763 L 464 763 L 463 747 L 415 735 L 405 727 Z
      M 298 448 L 333 449 L 333 453 L 336 455 L 336 483 L 333 485 L 332 489 L 297 488 L 297 485 L 294 483 L 294 455 L 297 453 Z
      M 187 427 L 210 427 L 216 432 L 216 439 L 213 440 L 213 494 L 210 497 L 185 497 L 183 495 L 183 457 L 180 456 L 180 436 L 186 435 Z
      M 741 406 L 763 407 L 763 413 L 760 415 L 759 430 L 743 430 L 738 426 L 738 411 L 740 410 Z
      M 822 489 L 822 553 L 820 555 L 742 555 L 741 531 L 711 531 L 710 578 L 657 578 L 655 588 L 640 587 L 640 568 L 652 567 L 653 551 L 694 551 L 694 511 L 690 509 L 689 501 L 691 499 L 691 488 L 688 487 L 687 475 L 689 473 L 699 472 L 700 459 L 714 458 L 714 444 L 702 442 L 703 402 L 715 402 L 716 409 L 719 410 L 719 460 L 716 462 L 716 485 L 706 487 L 706 494 L 710 494 L 712 496 L 712 503 L 740 503 L 742 488 Z
      M 258 323 L 286 323 L 287 333 L 294 333 L 295 339 L 302 340 L 302 358 L 297 360 L 298 372 L 293 379 L 293 396 L 297 400 L 297 413 L 303 415 L 303 421 L 283 423 L 263 442 L 263 492 L 281 508 L 345 508 L 362 491 L 363 480 L 369 480 L 371 477 L 385 477 L 386 481 L 431 481 L 449 497 L 453 503 L 453 537 L 434 559 L 384 559 L 383 589 L 346 590 L 346 641 L 344 643 L 281 642 L 281 619 L 257 584 L 257 558 L 250 558 L 249 554 L 245 554 L 243 552 L 243 536 L 246 535 L 246 441 L 241 439 L 241 433 L 243 431 L 248 431 L 248 423 L 250 421 L 254 421 L 254 400 L 248 398 L 248 391 L 199 391 L 196 389 L 196 386 L 193 385 L 193 371 L 198 369 L 198 364 L 200 362 L 235 362 L 232 359 L 232 356 L 239 348 L 245 346 L 257 347 Z
      M 741 283 L 823 282 L 824 352 L 742 353 Z
      M 707 277 L 708 311 L 703 313 L 703 317 L 708 318 L 708 351 L 703 352 L 702 356 L 716 357 L 716 383 L 702 384 L 700 371 L 654 372 L 654 471 L 655 473 L 665 473 L 667 475 L 666 487 L 664 489 L 664 499 L 677 499 L 679 501 L 679 513 L 677 515 L 669 515 L 668 511 L 596 511 L 596 515 L 592 516 L 592 551 L 606 551 L 607 565 L 617 566 L 616 589 L 603 588 L 602 567 L 538 567 L 537 493 L 568 492 L 568 454 L 512 453 L 512 395 L 502 394 L 502 369 L 514 368 L 514 338 L 508 337 L 508 330 L 500 330 L 498 328 L 494 317 L 497 313 L 501 322 L 504 310 L 504 290 L 519 290 L 519 308 L 568 308 L 569 301 L 584 301 L 585 315 L 614 315 L 614 279 L 616 277 Z
      M 528 228 L 530 230 L 530 247 L 520 248 L 519 255 L 506 255 L 505 248 L 447 248 L 447 257 L 441 258 L 441 284 L 445 284 L 447 289 L 463 289 L 464 303 L 468 319 L 468 314 L 473 314 L 473 329 L 465 330 L 464 337 L 458 339 L 458 368 L 469 369 L 469 394 L 458 396 L 458 453 L 403 454 L 401 452 L 400 441 L 387 441 L 385 451 L 371 451 L 369 448 L 360 447 L 360 438 L 345 424 L 331 422 L 331 415 L 335 414 L 335 400 L 339 396 L 339 378 L 335 373 L 335 359 L 331 358 L 331 340 L 339 339 L 340 333 L 347 333 L 347 324 L 353 323 L 354 301 L 379 301 L 379 273 L 384 271 L 384 249 L 379 248 L 380 230 L 409 229 L 412 232 L 412 239 L 440 239 L 441 228 L 469 228 L 471 230 L 471 236 L 497 236 L 497 230 L 499 228 Z
      M 269 239 L 270 210 L 286 210 L 287 214 L 294 215 L 294 222 L 332 222 L 333 214 L 341 214 L 341 192 L 334 192 L 332 190 L 333 168 L 347 168 L 348 177 L 377 177 L 377 173 L 379 171 L 406 171 L 408 177 L 433 177 L 434 172 L 440 171 L 441 168 L 454 169 L 454 201 L 353 202 L 353 239 L 351 241 L 271 241 Z
    "/>
    <path class="map-outline" fill-rule="evenodd" d="
      M 578 77 L 455 77 L 455 139 L 453 146 L 441 146 L 440 141 L 436 141 L 434 139 L 434 135 L 408 135 L 408 139 L 406 141 L 379 141 L 377 139 L 377 135 L 351 135 L 351 139 L 348 141 L 347 146 L 334 146 L 332 132 L 295 132 L 294 147 L 291 148 L 291 170 L 294 172 L 293 192 L 286 192 L 284 194 L 270 194 L 269 192 L 218 192 L 217 178 L 157 178 L 157 363 L 159 364 L 159 369 L 163 371 L 163 385 L 160 386 L 157 391 L 133 391 L 133 397 L 127 399 L 127 421 L 133 423 L 133 435 L 151 436 L 151 456 L 147 457 L 147 528 L 183 528 L 184 516 L 211 516 L 213 518 L 213 535 L 216 536 L 216 552 L 214 554 L 208 554 L 207 558 L 203 558 L 202 581 L 166 581 L 165 585 L 161 585 L 160 634 L 199 640 L 242 685 L 267 729 L 281 743 L 321 753 L 371 771 L 402 772 L 440 801 L 442 913 L 465 928 L 512 927 L 514 936 L 546 930 L 547 809 L 688 809 L 690 811 L 690 863 L 739 858 L 740 765 L 750 738 L 752 736 L 839 736 L 839 641 L 820 641 L 811 620 L 815 618 L 821 630 L 824 616 L 827 611 L 869 611 L 869 511 L 855 510 L 855 457 L 841 455 L 841 440 L 836 426 L 833 426 L 831 423 L 827 400 L 823 399 L 823 388 L 855 386 L 855 333 L 872 332 L 872 243 L 852 242 L 851 233 L 788 233 L 786 242 L 585 243 L 585 268 L 569 269 L 568 248 L 556 247 L 556 229 L 578 228 Z
      M 465 839 L 467 837 L 512 837 L 513 858 L 508 860 L 466 859 Z
      M 287 668 L 289 666 L 334 666 L 336 668 L 336 701 L 288 702 Z
      M 367 726 L 367 604 L 369 602 L 435 602 L 437 605 L 437 611 L 547 611 L 548 607 L 597 607 L 599 616 L 689 616 L 690 606 L 769 606 L 770 611 L 791 612 L 791 640 L 775 641 L 774 679 L 729 721 L 687 721 L 686 789 L 547 789 L 546 763 L 519 758 L 517 763 L 464 763 L 463 747 L 415 735 L 405 727 Z
      M 298 448 L 333 449 L 333 453 L 336 455 L 336 483 L 333 485 L 332 489 L 297 488 L 297 485 L 294 483 L 294 455 L 297 453 Z
      M 187 427 L 210 427 L 216 432 L 216 439 L 213 440 L 213 494 L 210 497 L 185 497 L 183 495 L 183 457 L 180 456 L 180 436 L 186 435 Z
      M 741 406 L 763 407 L 763 413 L 760 415 L 759 430 L 743 430 L 738 426 L 738 411 L 740 410 Z
      M 822 489 L 822 553 L 820 555 L 742 555 L 741 531 L 711 531 L 710 578 L 657 578 L 655 588 L 640 587 L 640 568 L 652 567 L 653 551 L 694 551 L 694 511 L 690 509 L 689 501 L 691 499 L 691 488 L 688 487 L 687 475 L 689 473 L 699 472 L 700 459 L 714 458 L 714 444 L 702 442 L 703 402 L 715 402 L 716 409 L 719 410 L 719 460 L 716 462 L 716 485 L 706 487 L 706 494 L 710 494 L 712 496 L 712 503 L 740 503 L 742 488 Z
      M 258 323 L 286 323 L 287 333 L 294 333 L 295 339 L 302 340 L 302 358 L 297 360 L 298 372 L 293 379 L 293 396 L 297 400 L 297 413 L 303 415 L 303 421 L 283 423 L 263 442 L 263 492 L 281 508 L 345 508 L 362 491 L 363 480 L 369 480 L 371 477 L 385 477 L 386 481 L 431 481 L 449 497 L 453 503 L 453 537 L 434 559 L 384 559 L 383 589 L 346 590 L 346 641 L 344 643 L 281 642 L 281 619 L 257 584 L 257 558 L 250 558 L 249 554 L 245 554 L 243 552 L 243 536 L 246 535 L 246 441 L 241 439 L 241 433 L 243 431 L 248 431 L 248 423 L 250 421 L 254 421 L 254 400 L 248 398 L 248 391 L 199 391 L 196 389 L 196 386 L 193 385 L 193 371 L 198 369 L 198 364 L 200 362 L 235 362 L 232 359 L 232 356 L 239 348 L 245 346 L 257 347 Z
      M 741 283 L 823 282 L 824 352 L 742 353 Z
      M 707 277 L 708 311 L 703 313 L 703 317 L 708 318 L 708 351 L 703 352 L 702 356 L 716 357 L 716 383 L 702 384 L 700 371 L 654 372 L 654 471 L 655 473 L 665 473 L 667 475 L 666 487 L 664 489 L 664 499 L 677 499 L 679 501 L 679 513 L 677 515 L 669 515 L 668 511 L 596 511 L 596 515 L 592 516 L 592 551 L 606 551 L 607 565 L 617 566 L 616 589 L 603 588 L 602 567 L 538 567 L 537 493 L 568 492 L 568 454 L 512 453 L 512 395 L 502 394 L 502 369 L 514 368 L 514 338 L 508 337 L 508 330 L 500 330 L 498 328 L 494 317 L 497 313 L 501 322 L 504 310 L 504 290 L 519 290 L 519 308 L 568 308 L 569 301 L 584 301 L 585 315 L 614 315 L 614 279 L 616 277 Z
      M 528 228 L 530 230 L 530 247 L 520 248 L 519 255 L 506 255 L 505 248 L 447 248 L 447 257 L 441 258 L 441 284 L 445 284 L 447 289 L 463 289 L 464 303 L 468 319 L 468 314 L 473 314 L 473 329 L 465 330 L 464 337 L 458 339 L 458 368 L 469 369 L 469 394 L 458 396 L 458 453 L 403 454 L 401 452 L 400 441 L 387 441 L 385 451 L 371 451 L 369 448 L 360 447 L 360 438 L 345 424 L 331 422 L 331 415 L 335 414 L 335 400 L 339 396 L 339 378 L 335 373 L 335 359 L 331 358 L 331 340 L 339 339 L 340 333 L 347 333 L 347 324 L 353 323 L 354 301 L 379 301 L 379 273 L 384 271 L 384 249 L 379 248 L 380 230 L 409 229 L 412 232 L 412 239 L 440 239 L 441 228 L 469 228 L 471 230 L 471 236 L 497 236 L 497 230 L 499 228 Z
      M 269 239 L 270 210 L 286 210 L 287 214 L 294 215 L 294 222 L 332 222 L 333 214 L 341 214 L 341 192 L 334 192 L 332 190 L 333 168 L 347 168 L 348 177 L 377 177 L 377 173 L 379 171 L 406 171 L 408 177 L 433 177 L 434 172 L 440 171 L 441 168 L 454 169 L 454 201 L 353 202 L 353 239 L 351 241 L 271 241 Z
    "/>
  </g>

  <g id="markers">
    <path id="orange-markers" class="marker-orange" fill-rule="evenodd" d="
      M 271 242 L 271 293 L 272 294 L 348 294 L 350 292 L 350 287 L 349 286 L 347 287 L 346 291 L 274 291 L 273 290 L 273 244 L 274 243 L 346 243 L 347 244 L 347 256 L 350 256 L 350 243 L 349 242 Z
      M 720 392 L 720 449 L 721 450 L 791 450 L 800 446 L 808 438 L 812 431 L 814 419 L 811 408 L 808 403 L 802 397 L 793 392 L 789 391 L 721 391 Z
    "/>
    <path id="green-markers" class="marker-green" fill-rule="evenodd" d="
      M 463 80 L 462 84 L 462 89 L 463 90 L 462 227 L 463 228 L 472 228 L 473 229 L 497 229 L 498 228 L 555 229 L 556 228 L 576 228 L 577 226 L 576 224 L 577 222 L 576 81 L 575 80 Z
      M 447 839 L 447 915 L 466 926 L 467 925 L 471 925 L 472 926 L 513 926 L 515 928 L 515 936 L 546 931 L 546 839 L 545 838 L 515 838 L 515 839 L 544 839 L 546 841 L 546 929 L 543 931 L 527 933 L 521 935 L 517 935 L 516 934 L 515 926 L 465 925 L 448 914 L 448 840 L 449 839 L 466 839 L 466 838 L 449 838 Z
    "/>
  </g>
</svg>
