<?xml version="1.0" encoding="UTF-8"?>
<svg xmlns="http://www.w3.org/2000/svg" viewBox="0 0 1024 1024" width="1024" height="1024" role="img">
  <title>simplified counter-strike radar map</title>
  <defs>
    <style><![CDATA[
      .map-base{fill:#b88e5f;stroke:#7b5b3d;stroke-width:3;stroke-linejoin:round;}
      .map-dark{fill:#745846;stroke:none;opacity:.78;}
      .map-teal{fill:#5c9d8d;stroke:none;opacity:.88;}
      .map-gray{fill:#a7aaa6;stroke:none;opacity:.9;}
      .map-light{fill:#d9d7cd;stroke:none;opacity:.92;}
      .site-orange{fill:#ee8a22;stroke:none;opacity:.96;}
      .site-green{fill:#23db47;stroke:none;opacity:.96;}
    ]]></style>
  </defs>
  <g id="base">
    <path class="map-base" fill-rule="evenodd" d="M 445 35 L 411 44 L 397 69 L 370 99 L 346 140 L 346 152 L 363 159 L 352 181 L 364 242 L 302 258 L 286 275 L 283 364 L 276 371 L 276 463 L 279 468 L 289 469 L 289 477 L 238 478 L 225 492 L 225 529 L 237 543 L 213 567 L 189 547 L 153 585 L 175 607 L 175 667 L 247 669 L 248 703 L 330 785 L 327 792 L 295 825 L 315 845 L 309 858 L 352 901 L 363 901 L 434 971 L 527 971 L 531 976 L 541 976 L 543 973 L 546 973 L 548 978 L 567 976 L 575 985 L 583 985 L 585 973 L 599 976 L 601 973 L 617 973 L 625 969 L 648 946 L 648 940 L 657 935 L 670 919 L 670 880 L 683 878 L 683 847 L 670 845 L 670 787 L 701 786 L 701 764 L 725 739 L 810 739 L 809 732 L 812 727 L 825 728 L 824 524 L 785 524 L 784 509 L 775 506 L 775 487 L 780 486 L 782 481 L 794 481 L 796 486 L 839 486 L 885 440 L 885 382 L 876 380 L 876 361 L 884 358 L 884 256 L 847 253 L 847 233 L 836 233 L 831 228 L 831 222 L 835 217 L 834 201 L 816 201 L 815 198 L 776 201 L 774 228 L 743 225 L 739 184 L 708 184 L 704 209 L 677 238 L 677 249 L 672 253 L 668 252 L 665 248 L 615 223 L 615 176 L 608 174 L 609 110 L 628 46 L 568 27 Z M 318 729 L 332 735 L 333 740 L 329 745 L 315 734 Z M 348 837 L 409 775 L 404 766 L 412 758 L 420 763 L 459 723 L 507 721 L 509 724 L 522 724 L 524 721 L 533 721 L 535 724 L 549 724 L 574 748 L 575 778 L 619 779 L 619 808 L 623 810 L 622 869 L 566 869 L 563 857 L 539 857 L 530 849 L 523 849 L 521 883 L 466 883 L 462 895 L 453 892 L 433 895 L 429 831 L 407 830 L 374 863 L 366 858 Z M 530 618 L 534 617 L 536 622 L 557 622 L 559 632 L 611 632 L 613 637 L 635 637 L 637 632 L 649 632 L 650 640 L 673 640 L 674 688 L 682 689 L 695 701 L 694 716 L 675 736 L 610 736 L 610 704 L 601 690 L 557 690 L 556 680 L 544 677 L 544 647 L 530 645 Z M 636 608 L 648 607 L 650 616 L 637 617 Z M 238 589 L 260 567 L 263 567 L 289 593 L 371 593 L 373 580 L 381 579 L 384 630 L 438 630 L 440 627 L 447 627 L 449 630 L 473 630 L 474 624 L 493 624 L 494 621 L 498 621 L 499 646 L 446 647 L 445 659 L 435 661 L 435 698 L 424 699 L 389 734 L 391 738 L 380 745 L 345 710 L 345 620 L 273 619 L 250 596 L 240 595 Z M 315 559 L 323 563 L 323 568 L 318 573 L 310 568 L 311 562 Z M 530 579 L 531 556 L 556 556 L 558 562 L 575 563 L 574 566 L 558 566 L 556 580 Z M 787 545 L 787 688 L 717 689 L 716 681 L 703 671 L 703 618 L 776 617 L 777 572 L 763 570 L 763 546 Z M 381 499 L 386 499 L 390 503 L 390 508 L 386 512 L 381 512 L 377 508 L 377 503 Z M 537 497 L 560 496 L 567 507 L 562 514 L 538 514 Z M 324 493 L 348 492 L 349 517 L 324 518 Z M 559 350 L 560 361 L 554 363 L 554 395 L 551 397 L 551 421 L 554 423 L 554 450 L 551 452 L 551 459 L 518 458 L 515 466 L 500 467 L 500 501 L 507 503 L 507 513 L 494 515 L 491 521 L 491 543 L 494 546 L 494 555 L 499 557 L 500 590 L 493 590 L 493 580 L 475 580 L 472 575 L 449 575 L 448 605 L 439 606 L 428 601 L 427 554 L 406 552 L 401 555 L 388 555 L 382 563 L 374 563 L 373 544 L 381 535 L 391 538 L 393 533 L 398 534 L 400 545 L 429 544 L 429 453 L 390 452 L 386 456 L 381 456 L 374 451 L 374 432 L 387 431 L 389 443 L 419 443 L 422 439 L 441 439 L 444 444 L 452 444 L 455 448 L 509 448 L 510 357 L 543 356 L 545 350 Z M 840 361 L 840 380 L 834 382 L 834 409 L 810 411 L 810 425 L 820 428 L 818 460 L 782 461 L 779 453 L 676 454 L 674 580 L 650 580 L 649 583 L 611 580 L 609 566 L 588 565 L 589 562 L 610 562 L 614 515 L 605 514 L 597 507 L 605 500 L 606 429 L 613 427 L 613 406 L 617 402 L 668 404 L 670 396 L 679 401 L 726 401 L 761 368 L 776 363 L 792 330 L 797 326 L 803 327 L 810 340 Z M 845 290 L 856 293 L 857 302 L 853 306 L 848 307 L 842 303 L 841 295 Z M 369 278 L 370 290 L 362 292 L 368 303 L 364 322 L 350 333 L 344 333 L 340 329 L 334 329 L 332 333 L 321 333 L 320 309 L 317 304 L 341 281 Z M 484 274 L 485 282 L 478 284 L 478 378 L 441 380 L 439 405 L 389 405 L 384 409 L 343 409 L 339 413 L 339 433 L 343 439 L 335 445 L 322 432 L 322 405 L 329 402 L 329 367 L 334 366 L 335 361 L 340 358 L 389 360 L 401 354 L 404 316 L 410 311 L 409 291 L 397 289 L 397 279 L 405 278 L 406 268 L 474 267 Z M 722 230 L 728 236 L 728 241 L 714 251 L 706 276 L 706 286 L 713 293 L 711 310 L 700 316 L 695 292 L 700 286 L 702 265 L 712 244 L 710 237 L 716 230 Z M 464 174 L 471 168 L 482 168 L 483 180 L 471 183 Z M 516 159 L 574 160 L 575 287 L 615 287 L 617 297 L 660 297 L 661 292 L 668 286 L 668 281 L 676 281 L 675 374 L 671 375 L 666 369 L 626 369 L 617 377 L 607 377 L 606 367 L 615 365 L 615 329 L 611 327 L 610 316 L 575 316 L 558 322 L 545 322 L 543 318 L 515 317 L 515 285 L 510 282 L 510 277 L 515 274 L 515 253 L 512 251 L 512 241 L 515 239 L 515 216 L 512 214 L 515 182 L 511 179 L 511 170 L 515 167 Z"/>
  </g>
  <g id="dark-areas">
    <path class="map-dark" fill-rule="evenodd" d="M 453 893 L 454 895 L 465 895 L 466 884 L 521 883 L 466 883 L 464 885 L 464 894 L 457 895 Z"/>
    <path class="map-dark" fill-rule="evenodd" d="M 670 879 L 669 920 L 663 925 L 670 919 Z"/>
    <path class="map-dark" fill-rule="evenodd" d="M 522 850 L 529 850 L 531 854 L 538 858 L 547 858 L 532 854 L 530 849 Z"/>
    <path class="map-dark" fill-rule="evenodd" d="M 429 831 L 430 895 L 441 895 L 443 892 L 451 892 L 442 892 L 438 895 L 431 894 L 431 833 Z"/>
    <path class="map-dark" fill-rule="evenodd" d="M 701 786 L 669 786 L 669 846 L 671 846 L 670 787 Z"/>
    <path class="map-dark" fill-rule="evenodd" d="M 574 748 L 575 778 L 619 779 L 619 808 L 623 810 L 623 869 L 624 810 L 619 807 L 620 778 L 575 777 Z"/>
    <path class="map-dark" fill-rule="evenodd" d="M 609 702 L 609 737 L 675 737 L 679 733 L 675 736 L 610 736 Z"/>
    <path class="map-dark" fill-rule="evenodd" d="M 169 601 L 175 607 L 176 668 L 236 669 L 176 667 L 176 608 Z"/>
    <path class="map-dark" fill-rule="evenodd" d="M 250 596 L 273 620 L 345 621 L 345 710 L 374 739 L 345 710 L 345 620 L 273 619 Z"/>
    <path class="map-dark" fill-rule="evenodd" d="M 497 594 L 494 595 L 493 624 L 493 617 L 499 615 L 499 596 Z"/>
    <path class="map-dark" fill-rule="evenodd" d="M 236 591 L 238 593 L 238 589 L 260 567 L 263 567 L 289 593 L 371 593 L 373 591 L 373 580 L 376 579 L 372 579 L 373 591 L 370 593 L 288 592 L 262 565 Z"/>
    <path class="map-dark" fill-rule="evenodd" d="M 530 556 L 530 647 L 544 648 L 544 679 L 554 679 L 556 691 L 601 691 L 557 690 L 556 680 L 544 677 L 544 647 L 530 645 L 530 611 L 535 611 L 535 617 L 535 580 L 530 579 L 530 557 L 556 556 L 558 562 L 575 563 L 574 566 L 574 562 L 559 562 L 558 555 Z"/>
    <path class="map-dark" fill-rule="evenodd" d="M 788 546 L 788 569 L 785 572 L 785 612 L 788 614 L 788 619 L 788 612 L 786 611 Z"/>
    <path class="map-dark" fill-rule="evenodd" d="M 380 536 L 372 544 L 372 564 L 381 564 L 385 559 L 382 563 L 373 562 L 373 544 L 377 542 Z"/>
    <path class="map-dark" fill-rule="evenodd" d="M 398 533 L 400 545 L 429 544 L 400 544 Z"/>
    <path class="map-dark" fill-rule="evenodd" d="M 797 523 L 824 525 L 822 523 Z"/>
    <path class="map-dark" fill-rule="evenodd" d="M 493 517 L 491 521 L 491 543 L 494 545 L 492 543 Z"/>
    <path class="map-dark" fill-rule="evenodd" d="M 570 506 L 562 514 L 537 515 L 561 515 Z"/>
    <path class="map-dark" fill-rule="evenodd" d="M 537 495 L 560 496 L 562 501 L 566 504 L 568 503 L 561 498 L 562 495 Z"/>
    <path class="map-dark" fill-rule="evenodd" d="M 323 492 L 322 495 L 312 495 L 311 499 L 323 500 L 324 518 Z"/>
    <path class="map-dark" fill-rule="evenodd" d="M 501 466 L 500 496 L 501 502 L 507 503 L 507 513 L 501 515 L 508 515 L 508 503 L 501 500 Z"/>
    <path class="map-dark" fill-rule="evenodd" d="M 517 459 L 546 460 L 544 458 Z"/>
    <path class="map-dark" fill-rule="evenodd" d="M 759 453 L 779 454 L 780 461 L 796 461 L 782 461 L 779 453 Z"/>
    <path class="map-dark" fill-rule="evenodd" d="M 632 401 L 615 403 L 612 407 L 612 426 L 605 428 L 604 500 L 600 501 L 604 501 L 605 429 L 612 428 L 613 406 L 617 402 L 637 404 Z"/>
    <path class="map-dark" fill-rule="evenodd" d="M 328 399 L 327 404 L 321 404 L 321 432 L 336 446 L 322 432 L 322 405 L 327 404 Z"/>
    <path class="map-dark" fill-rule="evenodd" d="M 626 369 L 668 371 L 666 369 Z"/>
    <path class="map-dark" fill-rule="evenodd" d="M 278 367 L 276 371 L 276 387 L 278 390 L 276 396 L 276 413 L 278 415 L 276 421 L 276 440 L 278 442 L 276 462 L 279 468 L 277 463 Z"/>
    <path class="map-dark" fill-rule="evenodd" d="M 544 350 L 543 355 L 510 356 L 510 446 L 510 357 L 543 356 Z"/>
    <path class="map-dark" fill-rule="evenodd" d="M 514 216 L 515 238 L 511 240 L 511 252 L 515 254 L 514 274 L 509 276 L 510 284 L 515 286 L 515 317 L 515 285 L 510 282 L 510 277 L 515 274 L 515 253 L 511 251 L 511 241 L 515 239 Z"/>
    <path class="map-dark" fill-rule="evenodd" d="M 724 231 L 728 236 L 728 242 L 723 247 L 718 247 L 715 250 L 709 264 L 706 286 L 711 288 L 713 292 L 711 311 L 717 314 L 716 321 L 737 343 L 733 351 L 741 357 L 742 363 L 745 362 L 754 370 L 752 377 L 748 381 L 763 366 L 773 366 L 776 363 L 791 331 L 795 327 L 801 326 L 806 330 L 807 337 L 831 357 L 840 361 L 841 380 L 834 382 L 882 394 L 881 399 L 876 399 L 885 400 L 883 442 L 885 439 L 885 382 L 877 381 L 875 375 L 876 361 L 883 359 L 883 256 L 883 307 L 872 308 L 882 308 L 883 311 L 849 312 L 847 308 L 854 306 L 858 301 L 857 295 L 857 302 L 853 306 L 845 306 L 841 302 L 842 293 L 845 290 L 854 291 L 845 287 L 841 287 L 840 290 L 836 289 L 837 235 L 841 233 L 836 233 L 831 228 L 831 222 L 835 216 L 834 201 L 795 198 L 793 204 L 784 204 L 783 235 L 773 234 L 774 231 L 779 230 L 779 204 L 782 201 L 776 201 L 774 228 L 757 228 L 756 225 L 756 229 L 770 229 L 770 235 L 756 235 L 743 238 L 738 236 L 735 239 L 729 239 Z M 760 258 L 773 260 L 779 268 L 778 279 L 767 287 L 756 284 L 750 274 L 752 265 Z M 831 228 L 832 257 L 829 261 L 795 260 L 796 256 L 827 256 L 827 228 Z M 795 201 L 812 199 L 815 203 L 796 204 Z"/>
    <path class="map-dark" fill-rule="evenodd" d="M 619 43 L 627 46 L 628 49 L 608 110 L 607 149 L 601 151 L 599 155 L 599 210 L 597 218 L 599 248 L 591 249 L 580 245 L 579 159 L 516 158 L 514 159 L 514 167 L 511 168 L 511 181 L 511 169 L 514 168 L 516 159 L 574 160 L 574 260 L 627 260 L 634 264 L 645 246 L 648 245 L 647 242 L 652 242 L 614 223 L 615 176 L 608 174 L 608 112 L 629 48 Z"/>
  </g>
  <g id="teal-areas">
    <path class="map-teal" fill-rule="evenodd" d="M 529 602 L 530 607 L 535 606 L 536 610 L 635 610 L 636 607 L 650 607 L 651 610 L 677 610 L 677 581 L 651 580 L 650 583 L 636 583 L 635 580 L 536 580 L 536 594 L 530 595 Z"/>
    <path class="map-teal" fill-rule="evenodd" d="M 484 580 L 485 609 L 493 610 L 494 606 L 499 606 L 500 609 L 500 593 L 500 603 L 493 603 L 493 580 Z"/>
    <path class="map-teal" fill-rule="evenodd" d="M 697 453 L 695 454 L 695 548 L 692 550 L 695 555 L 694 610 L 761 610 L 761 581 L 745 579 L 745 524 L 761 523 L 761 501 L 744 498 L 744 454 Z"/>
    <path class="map-teal" fill-rule="evenodd" d="M 840 235 L 840 286 L 882 288 L 883 255 L 846 254 L 845 232 Z"/>
    <path class="map-teal" fill-rule="evenodd" d="M 413 42 L 399 67 L 375 93 L 407 84 L 423 82 L 483 82 L 538 92 L 549 92 L 551 96 L 564 102 L 569 109 L 580 111 L 581 245 L 596 249 L 597 112 L 617 53 L 616 42 L 568 27 L 447 35 Z"/>
  </g>
  <g id="gray-areas">
    <path class="map-gray" fill-rule="evenodd" d="M 580 872 L 581 879 L 606 878 L 606 869 L 581 869 Z"/>
    <path class="map-gray" fill-rule="evenodd" d="M 543 863 L 543 866 L 562 866 L 563 857 L 548 857 L 548 862 Z"/>
    <path class="map-gray" fill-rule="evenodd" d="M 673 846 L 673 879 L 682 879 L 682 846 Z"/>
    <path class="map-gray" fill-rule="evenodd" d="M 742 726 L 742 739 L 750 739 L 751 737 L 754 739 L 757 739 L 758 737 L 765 739 L 768 734 L 764 729 L 752 730 L 750 726 Z"/>
    <path class="map-gray" fill-rule="evenodd" d="M 482 723 L 496 723 L 497 721 L 500 721 L 501 717 L 482 716 Z"/>
    <path class="map-gray" fill-rule="evenodd" d="M 815 702 L 815 721 L 824 722 L 824 714 L 822 713 L 822 707 L 824 706 L 822 705 L 822 702 Z"/>
    <path class="map-gray" fill-rule="evenodd" d="M 586 691 L 586 698 L 596 697 L 602 700 L 602 704 L 608 704 L 608 700 L 603 700 L 600 693 L 595 694 L 594 691 Z"/>
    <path class="map-gray" fill-rule="evenodd" d="M 253 665 L 253 671 L 266 671 L 266 665 Z"/>
    <path class="map-gray" fill-rule="evenodd" d="M 478 647 L 479 654 L 492 654 L 492 647 Z"/>
    <path class="map-gray" fill-rule="evenodd" d="M 200 644 L 200 650 L 213 650 L 213 644 Z"/>
    <path class="map-gray" fill-rule="evenodd" d="M 822 597 L 818 602 L 820 605 L 824 606 L 824 597 Z"/>
    <path class="map-gray" fill-rule="evenodd" d="M 530 583 L 530 591 L 528 593 L 500 592 L 500 618 L 501 609 L 529 610 Z"/>
    <path class="map-gray" fill-rule="evenodd" d="M 554 580 L 609 580 L 608 567 L 587 566 L 559 567 L 558 579 Z"/>
    <path class="map-gray" fill-rule="evenodd" d="M 377 579 L 382 579 L 384 582 L 384 630 L 438 630 L 438 626 L 448 626 L 450 630 L 472 630 L 473 624 L 492 624 L 493 610 L 488 609 L 489 580 L 473 580 L 472 576 L 449 576 L 448 597 L 450 598 L 450 605 L 436 606 L 435 604 L 426 601 L 426 553 L 404 553 L 406 554 L 406 560 L 382 579 Z"/>
    <path class="map-gray" fill-rule="evenodd" d="M 824 526 L 816 527 L 816 534 L 824 535 Z"/>
    <path class="map-gray" fill-rule="evenodd" d="M 381 526 L 381 535 L 386 535 L 391 538 L 390 527 Z"/>
    <path class="map-gray" fill-rule="evenodd" d="M 258 502 L 251 504 L 245 510 L 251 515 L 257 509 L 259 505 Z"/>
    <path class="map-gray" fill-rule="evenodd" d="M 531 500 L 530 510 L 537 511 L 537 500 Z"/>
    <path class="map-gray" fill-rule="evenodd" d="M 560 440 L 554 441 L 555 451 L 560 451 Z"/>
    <path class="map-gray" fill-rule="evenodd" d="M 345 439 L 341 445 L 337 446 L 341 451 L 349 444 L 349 442 Z"/>
    <path class="map-gray" fill-rule="evenodd" d="M 881 394 L 842 385 L 841 382 L 834 383 L 834 409 L 810 411 L 810 425 L 818 425 L 822 429 L 822 434 L 820 435 L 820 460 L 780 462 L 779 454 L 760 455 L 758 453 L 747 453 L 744 455 L 744 501 L 757 502 L 761 504 L 761 522 L 745 524 L 745 580 L 761 581 L 760 610 L 693 609 L 695 559 L 709 552 L 706 546 L 698 548 L 695 547 L 695 455 L 676 454 L 677 549 L 675 550 L 675 580 L 677 581 L 677 609 L 651 610 L 650 619 L 636 619 L 634 617 L 634 610 L 536 610 L 536 620 L 538 622 L 558 622 L 559 632 L 612 632 L 614 637 L 634 637 L 634 632 L 636 630 L 650 630 L 651 640 L 675 640 L 676 689 L 684 689 L 689 695 L 707 678 L 709 678 L 702 671 L 702 616 L 775 617 L 776 615 L 776 571 L 761 570 L 761 546 L 772 545 L 772 535 L 782 534 L 783 509 L 775 507 L 775 487 L 779 486 L 780 481 L 796 481 L 797 486 L 838 486 L 883 440 L 884 400 L 882 399 Z"/>
    <path class="map-gray" fill-rule="evenodd" d="M 570 351 L 560 350 L 559 363 L 560 356 L 570 355 Z"/>
    <path class="map-gray" fill-rule="evenodd" d="M 601 344 L 601 364 L 606 366 L 606 376 L 609 377 L 606 376 L 606 367 L 615 365 L 615 345 Z"/>
    <path class="map-gray" fill-rule="evenodd" d="M 408 291 L 372 292 L 371 287 L 370 291 L 363 291 L 362 296 L 367 300 L 369 306 L 368 313 L 365 317 L 365 322 L 352 333 L 343 333 L 341 330 L 339 332 L 334 331 L 332 333 L 336 335 L 345 354 L 344 357 L 340 357 L 353 357 L 355 359 L 391 359 L 398 356 L 399 341 L 403 330 L 403 315 L 406 314 L 410 308 L 410 296 Z"/>
    <path class="map-gray" fill-rule="evenodd" d="M 514 286 L 514 292 L 510 293 L 480 289 L 479 285 L 481 284 L 479 284 L 479 379 L 477 381 L 442 380 L 441 405 L 389 405 L 388 406 L 394 406 L 394 441 L 389 443 L 421 442 L 422 439 L 441 439 L 443 443 L 453 443 L 455 448 L 509 448 L 509 356 L 527 353 L 527 318 L 514 317 Z"/>
    <path class="map-gray" fill-rule="evenodd" d="M 735 239 L 725 248 L 717 262 L 714 274 L 714 288 L 711 289 L 714 290 L 714 293 L 714 279 L 718 261 L 724 250 Z"/>
    <path class="map-gray" fill-rule="evenodd" d="M 829 259 L 794 259 L 794 275 L 788 292 L 777 304 L 768 309 L 760 311 L 717 311 L 716 313 L 713 313 L 711 309 L 714 308 L 714 298 L 714 301 L 711 302 L 711 311 L 709 313 L 705 312 L 704 317 L 699 316 L 699 304 L 694 298 L 694 292 L 699 287 L 700 271 L 704 258 L 701 258 L 683 245 L 679 244 L 677 242 L 679 237 L 676 240 L 679 247 L 673 253 L 667 252 L 663 247 L 647 241 L 649 242 L 649 245 L 637 266 L 627 261 L 574 261 L 574 286 L 616 287 L 618 297 L 659 297 L 660 292 L 667 287 L 667 280 L 674 279 L 678 283 L 678 372 L 674 375 L 669 375 L 666 370 L 649 372 L 648 402 L 635 404 L 667 404 L 669 396 L 675 396 L 680 401 L 725 401 L 761 368 L 759 368 L 715 322 L 716 313 L 722 311 L 758 312 L 770 309 L 782 301 L 790 290 L 794 278 L 796 260 L 799 260 L 800 263 L 828 263 Z"/>
    <path class="map-gray" fill-rule="evenodd" d="M 839 235 L 839 285 L 845 286 L 845 256 L 848 255 L 850 288 L 882 288 L 849 287 L 849 254 L 845 254 L 845 233 L 845 285 L 840 285 Z"/>
    <path class="map-gray" fill-rule="evenodd" d="M 510 217 L 510 238 L 512 240 L 512 217 Z"/>
    <path class="map-gray" fill-rule="evenodd" d="M 405 201 L 405 205 L 415 204 L 415 201 Z"/>
    <path class="map-gray" fill-rule="evenodd" d="M 510 184 L 510 201 L 515 201 L 515 184 Z"/>
    <path class="map-gray" fill-rule="evenodd" d="M 466 179 L 464 176 L 446 189 L 442 188 L 432 194 L 405 194 L 405 197 L 436 197 L 439 203 L 448 197 L 446 195 L 447 192 Z"/>
    <path class="map-gray" fill-rule="evenodd" d="M 354 176 L 354 190 L 357 198 L 359 215 L 363 225 L 363 214 L 360 201 L 357 200 L 359 193 L 356 177 Z"/>
    <path class="map-gray" fill-rule="evenodd" d="M 484 170 L 484 173 L 510 173 L 510 170 Z"/>
    <path class="map-gray" fill-rule="evenodd" d="M 421 151 L 393 151 L 367 160 L 360 157 L 363 159 L 360 167 L 394 156 L 420 156 Z"/>
    <path class="map-gray" fill-rule="evenodd" d="M 447 103 L 449 106 L 522 118 L 522 116 Z"/>
    <path class="map-gray" fill-rule="evenodd" d="M 353 128 L 355 124 L 358 123 L 362 126 L 366 126 L 367 129 L 365 130 L 382 131 L 386 127 L 375 126 L 372 123 L 369 124 L 366 122 L 358 122 L 358 120 L 362 118 L 361 115 L 364 110 L 369 107 L 370 104 L 389 98 L 393 99 L 394 104 L 397 106 L 407 100 L 413 93 L 440 89 L 470 89 L 509 91 L 532 95 L 534 97 L 531 104 L 532 110 L 537 109 L 548 101 L 559 110 L 580 112 L 580 199 L 580 111 L 570 100 L 544 87 L 511 79 L 475 75 L 430 75 L 388 80 L 373 95 L 372 99 Z"/>
  </g>
  <g id="light-details">
    <path class="map-light" fill-rule="evenodd" d="M 743 727 L 743 739 L 750 738 L 750 727 Z"/>
    <path class="map-light" fill-rule="evenodd" d="M 816 714 L 815 720 L 822 721 L 822 714 Z"/>
    <path class="map-light" fill-rule="evenodd" d="M 815 703 L 815 709 L 822 709 L 822 703 Z"/>
    <path class="map-light" fill-rule="evenodd" d="M 253 666 L 253 671 L 266 671 L 265 665 Z"/>
    <path class="map-light" fill-rule="evenodd" d="M 200 644 L 200 649 L 213 649 L 213 644 Z"/>
    <path class="map-light" fill-rule="evenodd" d="M 542 614 L 537 615 L 537 619 L 540 622 L 543 619 Z"/>
    <path class="map-light" fill-rule="evenodd" d="M 817 527 L 817 534 L 823 534 L 823 527 Z"/>
    <path class="map-light" fill-rule="evenodd" d="M 381 526 L 381 534 L 385 533 L 389 536 L 390 527 Z"/>
    <path class="map-light" fill-rule="evenodd" d="M 258 502 L 255 504 L 255 507 L 251 504 L 245 510 L 251 515 L 256 510 L 255 507 L 259 505 Z"/>
    <path class="map-light" fill-rule="evenodd" d="M 346 439 L 338 447 L 341 451 L 349 444 L 349 442 Z"/>
    <path class="map-light" fill-rule="evenodd" d="M 480 368 L 480 380 L 485 380 L 485 369 Z"/>
    <path class="map-light" fill-rule="evenodd" d="M 602 358 L 602 364 L 613 365 L 613 358 Z"/>
    <path class="map-light" fill-rule="evenodd" d="M 725 339 L 716 348 L 724 356 L 733 348 Z"/>
    <path class="map-light" fill-rule="evenodd" d="M 587 274 L 586 278 L 578 283 L 576 281 L 576 277 L 576 285 L 587 285 Z"/>
  </g>
  <g id="orange-overlays">
    <path class="site-orange" fill-rule="evenodd" d="M 299 469 L 299 539 L 373 539 L 373 494 L 346 469 Z M 311 496 L 323 495 L 324 491 L 349 491 L 350 498 L 361 499 L 361 511 L 359 513 L 350 512 L 349 518 L 324 518 L 323 500 L 312 500 Z"/>
    <path class="site-orange" fill-rule="evenodd" d="M 830 202 L 827 202 L 828 255 L 791 256 L 791 272 L 788 284 L 784 292 L 775 301 L 766 306 L 755 308 L 718 307 L 718 274 L 721 263 L 727 252 L 739 240 L 744 237 L 752 235 L 783 235 L 784 204 L 816 203 L 816 201 L 782 200 L 781 231 L 779 233 L 755 232 L 743 234 L 736 238 L 725 249 L 717 266 L 715 279 L 715 309 L 760 310 L 769 308 L 779 302 L 787 293 L 792 281 L 793 260 L 795 258 L 830 258 Z"/>
  </g>
  <g id="green-overlays">
    <path class="site-green" fill-rule="evenodd" d="M 376 907 L 376 909 L 438 970 L 588 970 L 587 896 L 429 897 L 410 881 L 404 879 Z M 381 907 L 406 883 L 427 900 L 583 899 L 585 901 L 585 967 L 440 967 Z"/>
    <path class="site-green" fill-rule="evenodd" d="M 468 180 L 465 180 L 440 197 L 356 197 L 356 200 L 442 200 L 468 183 Z"/>
    <path class="site-green" fill-rule="evenodd" d="M 507 176 L 483 175 L 483 178 L 504 179 L 503 273 L 491 273 L 476 262 L 400 262 L 398 270 L 357 270 L 355 261 L 355 244 L 353 244 L 353 273 L 401 273 L 403 265 L 474 265 L 489 276 L 506 276 Z"/>
  </g>
</svg>
