<?xml version="1.0" encoding="UTF-8"?>
<svg xmlns="http://www.w3.org/2000/svg" viewBox="0 0 1024 1024" width="1024" height="1024" role="img">
  <title>simplified counter-strike radar map</title>
  <defs>
    <style><![CDATA[
      .map-base{fill:#35512b;stroke:#162513;stroke-width:4;stroke-linejoin:round;}
      .map-structure{fill:#6f746b;stroke:none;opacity:.82;}
      .site-orange{fill:#df790b;stroke:none;opacity:.95;}
      .site-green{fill:#1bad3f;stroke:none;opacity:.95;}
    ]]></style>
  </defs>
  <g id="base">
    <path class="map-base" fill-rule="evenodd" d="M 787 144 L 782 154 L 782 170 L 788 182 L 799 185 L 800 197 L 810 204 L 834 204 L 844 194 L 845 171 L 842 146 L 835 142 Z"/>
    <path class="map-base" fill-rule="evenodd" d="M 77 15 L 76 180 L 65 183 L 67 209 L 60 211 L 60 263 L 67 265 L 65 327 L 95 330 L 95 411 L 64 413 L 64 502 L 137 504 L 140 518 L 166 518 L 168 572 L 125 573 L 122 593 L 94 593 L 91 596 L 91 707 L 95 710 L 95 755 L 88 757 L 88 845 L 54 879 L 54 973 L 148 974 L 153 982 L 329 982 L 332 978 L 485 978 L 487 1004 L 605 1003 L 608 967 L 667 965 L 667 877 L 650 875 L 650 823 L 682 822 L 684 830 L 741 828 L 736 758 L 737 675 L 727 669 L 728 664 L 737 663 L 738 568 L 728 566 L 728 560 L 734 557 L 762 560 L 777 575 L 777 593 L 773 596 L 775 691 L 846 691 L 848 699 L 922 699 L 924 669 L 969 669 L 969 500 L 926 494 L 926 418 L 929 356 L 943 330 L 953 330 L 956 319 L 973 317 L 973 271 L 968 215 L 932 213 L 932 102 L 925 100 L 925 34 L 792 33 L 789 100 L 618 100 L 616 115 L 624 119 L 623 155 L 618 155 L 616 151 L 572 151 L 571 190 L 552 209 L 491 209 L 489 148 L 324 148 L 321 115 L 267 115 L 260 118 L 256 99 L 220 78 L 137 78 L 136 16 Z M 290 875 L 297 869 L 316 869 L 325 873 L 344 875 L 345 882 L 342 884 L 311 881 L 305 883 L 301 890 L 302 943 L 310 949 L 330 949 L 330 957 L 334 956 L 333 949 L 472 950 L 482 944 L 483 895 L 479 889 L 365 888 L 358 883 L 359 879 L 489 880 L 492 889 L 491 958 L 484 961 L 295 962 L 289 951 Z M 490 671 L 574 670 L 588 684 L 588 788 L 581 791 L 581 826 L 567 840 L 550 840 L 548 833 L 494 833 L 480 819 L 480 776 L 477 774 L 477 683 Z M 443 426 L 445 476 L 436 479 L 436 535 L 444 539 L 444 567 L 415 569 L 415 615 L 392 616 L 391 623 L 404 691 L 444 694 L 444 876 L 348 877 L 345 768 L 300 768 L 297 790 L 259 790 L 245 775 L 245 742 L 258 729 L 281 727 L 281 693 L 269 618 L 269 594 L 247 593 L 245 573 L 202 571 L 202 519 L 213 517 L 214 503 L 286 504 L 312 497 L 329 477 L 333 438 L 437 438 L 438 427 Z M 840 280 L 841 325 L 837 327 L 837 386 L 841 388 L 841 455 L 723 456 L 672 467 L 671 553 L 673 557 L 687 560 L 686 567 L 677 569 L 677 663 L 687 666 L 684 673 L 669 673 L 670 623 L 548 623 L 534 609 L 534 448 L 548 434 L 627 434 L 629 431 L 679 429 L 679 273 L 761 272 L 764 280 Z M 624 262 L 624 298 L 616 300 L 616 383 L 580 383 L 577 369 L 532 369 L 529 371 L 528 384 L 490 383 L 490 346 L 505 343 L 504 326 L 491 324 L 492 287 L 562 286 L 584 272 L 614 272 L 615 262 Z M 129 330 L 167 329 L 168 371 L 199 372 L 212 347 L 253 304 L 253 266 L 260 263 L 261 256 L 265 257 L 267 265 L 277 265 L 281 272 L 325 272 L 329 265 L 362 265 L 366 272 L 391 272 L 395 265 L 424 265 L 425 359 L 428 362 L 444 363 L 444 394 L 438 394 L 436 383 L 290 383 L 282 386 L 282 434 L 289 436 L 289 440 L 188 441 L 185 412 L 129 411 Z M 641 259 L 643 255 L 649 256 L 647 260 Z M 625 256 L 632 255 L 633 258 L 628 260 Z M 657 259 L 661 254 L 667 255 L 664 260 Z M 675 245 L 676 250 L 671 253 L 670 248 Z M 673 232 L 676 233 L 674 239 L 671 238 Z M 572 229 L 576 229 L 576 246 L 581 253 L 614 255 L 615 258 L 574 260 Z M 673 219 L 676 220 L 674 226 L 671 225 Z M 673 206 L 676 207 L 674 213 L 671 212 Z M 673 193 L 676 194 L 674 200 L 671 199 Z M 673 180 L 676 181 L 674 187 L 671 186 Z M 672 167 L 677 168 L 674 174 L 671 173 Z M 675 153 L 676 159 L 670 162 L 669 157 Z M 573 165 L 574 153 L 615 154 L 614 157 L 583 157 L 577 166 Z M 655 154 L 657 151 L 663 152 L 662 157 L 656 157 Z M 638 154 L 641 151 L 646 152 L 645 157 L 639 157 Z M 260 139 L 265 140 L 264 212 L 259 210 Z M 848 133 L 852 139 L 851 206 L 844 212 L 799 212 L 797 208 L 794 209 L 793 191 L 781 190 L 774 186 L 775 183 L 779 183 L 779 138 L 787 135 L 845 137 Z M 250 100 L 255 103 L 254 114 L 248 106 Z M 201 81 L 218 80 L 219 83 L 202 84 Z M 169 80 L 192 81 L 191 84 L 177 84 L 172 87 L 173 168 L 184 171 L 245 170 L 251 167 L 253 158 L 257 157 L 256 176 L 168 175 L 166 87 Z"/>
  </g>
  <g id="structure" />
  <g id="orange-overlays">
    <path class="site-orange" fill-rule="evenodd" d="M 847 133 L 845 138 L 840 136 L 787 136 L 780 138 L 778 143 L 778 178 L 780 183 L 774 185 L 778 189 L 792 189 L 794 191 L 794 209 L 799 210 L 796 211 L 844 211 L 849 208 L 851 204 L 851 139 Z M 787 143 L 793 141 L 835 141 L 843 146 L 846 158 L 845 194 L 840 201 L 832 203 L 834 205 L 810 205 L 810 203 L 813 203 L 807 203 L 799 197 L 798 185 L 788 183 L 783 173 L 783 151 Z"/>
    <path class="site-orange" fill-rule="evenodd" d="M 169 81 L 169 86 L 167 86 L 167 170 L 169 170 L 169 175 L 256 175 L 256 150 L 231 149 L 231 151 L 256 152 L 252 167 L 245 171 L 184 172 L 172 168 L 171 87 L 173 85 L 192 82 L 215 83 L 220 86 L 222 85 L 222 87 L 224 86 L 225 89 L 229 89 L 234 94 L 236 93 L 237 96 L 241 96 L 249 105 L 253 114 L 240 116 L 241 130 L 241 118 L 254 116 L 254 103 L 218 81 Z"/>
  </g>
  <g id="green-overlays">
    <path class="site-green" fill-rule="evenodd" d="M 291 875 L 290 953 L 295 961 L 484 960 L 490 958 L 491 889 L 489 881 L 358 881 L 365 887 L 469 886 L 479 888 L 484 895 L 484 941 L 477 950 L 306 949 L 300 940 L 301 887 L 305 882 L 311 880 L 328 880 L 339 884 L 344 883 L 343 875 L 325 874 L 316 870 L 297 870 Z M 331 951 L 335 955 L 333 958 L 328 956 L 328 953 Z"/>
    <path class="site-green" fill-rule="evenodd" d="M 651 255 L 645 255 L 638 260 L 647 259 Z"/>
    <path class="site-green" fill-rule="evenodd" d="M 624 258 L 628 260 L 635 255 L 628 255 Z"/>
    <path class="site-green" fill-rule="evenodd" d="M 675 244 L 667 254 L 663 254 L 655 260 L 664 259 L 673 252 Z"/>
    <path class="site-green" fill-rule="evenodd" d="M 675 231 L 672 234 L 672 239 L 675 237 Z"/>
    <path class="site-green" fill-rule="evenodd" d="M 574 225 L 574 259 L 614 259 L 614 254 L 612 256 L 581 254 L 575 246 Z"/>
    <path class="site-green" fill-rule="evenodd" d="M 675 218 L 672 221 L 672 226 L 675 224 Z"/>
    <path class="site-green" fill-rule="evenodd" d="M 675 205 L 672 208 L 672 213 L 675 211 Z"/>
    <path class="site-green" fill-rule="evenodd" d="M 675 192 L 672 195 L 672 200 L 675 198 Z"/>
    <path class="site-green" fill-rule="evenodd" d="M 676 178 L 672 182 L 672 187 L 675 185 Z"/>
    <path class="site-green" fill-rule="evenodd" d="M 676 165 L 672 168 L 672 174 L 676 170 Z"/>
    <path class="site-green" fill-rule="evenodd" d="M 675 154 L 668 159 L 670 162 L 675 159 Z"/>
    <path class="site-green" fill-rule="evenodd" d="M 614 154 L 574 154 L 574 195 L 575 166 L 578 160 L 583 156 L 614 157 Z"/>
    <path class="site-green" fill-rule="evenodd" d="M 627 155 L 638 153 L 637 157 L 655 153 L 653 157 L 671 152 L 628 152 Z"/>
  </g>
</svg>
