<?xml version="1.0" encoding="UTF-8"?>
<svg xmlns="http://www.w3.org/2000/svg" viewBox="0 0 1024 1024" width="1024" height="1024" role="img">
  <title>simplified counter-strike radar map</title>
  <defs>
    <style><![CDATA[
      .map-base{fill:#35512b;stroke:#162513;stroke-width:4;stroke-linejoin:round;}
      .map-structure{fill:#6f746b;stroke:none;opacity:.82;}
      .site-orange{fill:#df790b;stroke:none;opacity:.95;}
      .site-green{fill:#1bad3f;stroke:none;opacity:.95;}
    ]]></style>
  </defs>
  <g id="base">
    <path class="map-base" fill-rule="evenodd" d="M 498 66 L 497 141 L 444 143 L 444 124 L 423 124 L 423 295 L 443 295 L 444 291 L 449 291 L 451 295 L 560 295 L 561 352 L 504 353 L 430 495 L 405 496 L 405 520 L 436 521 L 436 596 L 430 600 L 307 600 L 305 624 L 248 624 L 247 669 L 193 667 L 191 663 L 160 664 L 157 670 L 153 671 L 153 690 L 160 695 L 160 700 L 147 703 L 147 728 L 153 729 L 152 738 L 140 738 L 139 722 L 130 721 L 130 709 L 139 708 L 139 650 L 129 649 L 129 638 L 140 636 L 140 631 L 106 620 L 99 623 L 82 639 L 82 650 L 70 652 L 70 706 L 74 707 L 74 721 L 70 723 L 70 779 L 74 780 L 74 813 L 93 813 L 93 788 L 100 787 L 98 833 L 161 830 L 162 847 L 157 849 L 157 875 L 192 877 L 193 889 L 212 889 L 213 892 L 238 892 L 239 887 L 246 887 L 263 878 L 273 883 L 280 875 L 294 872 L 295 844 L 329 844 L 333 848 L 332 919 L 357 919 L 358 897 L 386 897 L 387 892 L 477 892 L 479 938 L 501 937 L 502 934 L 508 934 L 509 940 L 585 940 L 586 948 L 623 948 L 625 932 L 687 932 L 688 862 L 691 862 L 692 866 L 819 866 L 820 841 L 844 842 L 844 899 L 929 898 L 935 892 L 939 892 L 964 856 L 964 789 L 918 788 L 918 762 L 928 759 L 934 750 L 935 717 L 934 714 L 919 713 L 919 607 L 938 606 L 938 589 L 919 587 L 919 568 L 923 568 L 925 579 L 964 579 L 965 575 L 971 575 L 971 520 L 957 519 L 957 470 L 926 470 L 926 466 L 921 464 L 926 460 L 921 455 L 926 453 L 926 439 L 943 392 L 948 351 L 947 285 L 919 279 L 918 256 L 896 245 L 896 218 L 890 193 L 884 187 L 865 204 L 840 180 L 783 180 L 781 183 L 773 183 L 772 186 L 759 186 L 758 180 L 732 180 L 732 195 L 723 196 L 722 174 L 684 175 L 685 168 L 697 168 L 696 117 L 639 116 L 639 111 L 644 110 L 644 75 L 600 75 L 599 82 L 596 83 L 594 66 Z M 622 847 L 651 848 L 652 867 L 665 868 L 664 910 L 630 912 L 621 906 Z M 501 847 L 585 846 L 586 851 L 596 852 L 596 880 L 583 881 L 581 906 L 509 905 L 508 912 L 502 913 Z M 367 845 L 396 844 L 399 838 L 408 832 L 480 833 L 477 870 L 387 870 L 386 850 L 368 850 Z M 239 831 L 247 832 L 246 851 L 238 850 Z M 663 793 L 664 841 L 650 842 L 649 829 L 660 828 L 660 794 Z M 239 778 L 247 779 L 246 796 L 238 795 Z M 686 768 L 698 771 L 698 811 L 819 811 L 820 818 L 798 819 L 797 841 L 688 843 L 687 813 L 691 811 L 691 797 L 687 795 Z M 396 740 L 409 739 L 413 753 L 397 754 Z M 686 730 L 690 731 L 689 752 L 685 750 Z M 622 704 L 690 705 L 689 712 L 664 712 L 663 781 L 660 777 L 621 776 Z M 292 704 L 301 705 L 301 774 L 323 772 L 324 782 L 292 781 Z M 811 700 L 818 699 L 819 706 L 812 707 Z M 490 697 L 569 698 L 568 783 L 489 782 L 490 745 L 487 742 L 490 740 Z M 247 695 L 248 743 L 239 744 L 238 737 L 213 737 L 213 845 L 202 846 L 201 851 L 192 851 L 191 802 L 183 802 L 182 795 L 162 795 L 160 802 L 131 802 L 130 780 L 139 779 L 140 763 L 151 763 L 152 769 L 189 769 L 188 695 Z M 352 638 L 428 636 L 429 703 L 479 704 L 478 757 L 447 759 L 445 755 L 425 753 L 426 749 L 431 749 L 431 740 L 435 739 L 435 709 L 368 710 L 367 715 L 327 715 L 327 727 L 324 732 L 325 761 L 320 763 L 319 705 L 340 703 Z M 733 584 L 868 588 L 867 638 L 821 638 L 818 657 L 812 656 L 812 643 L 793 643 L 793 753 L 818 751 L 818 757 L 732 756 L 732 744 L 738 743 L 738 718 L 732 717 L 732 706 L 738 705 L 738 677 L 732 676 L 732 666 L 738 665 L 738 639 L 732 638 L 732 628 L 738 627 L 738 598 L 732 597 Z M 908 467 L 924 466 L 925 469 L 909 470 Z M 809 468 L 895 466 L 895 470 L 890 470 L 890 521 L 931 521 L 932 526 L 927 527 L 927 548 L 919 549 L 919 533 L 812 532 L 808 535 Z M 773 439 L 779 438 L 780 443 L 774 444 Z M 773 329 L 779 329 L 779 339 L 872 339 L 873 392 L 772 393 Z M 773 284 L 778 283 L 779 288 L 774 289 Z M 839 267 L 844 269 L 842 274 L 837 272 Z M 443 240 L 449 239 L 450 245 L 444 246 Z M 771 234 L 779 235 L 778 246 L 772 245 Z M 752 234 L 754 241 L 748 242 L 748 466 L 785 467 L 782 470 L 782 527 L 785 528 L 785 533 L 749 535 L 727 532 L 681 535 L 681 550 L 703 551 L 703 618 L 684 619 L 684 637 L 691 639 L 690 665 L 623 665 L 622 641 L 534 641 L 533 651 L 507 651 L 505 637 L 463 637 L 462 597 L 467 596 L 467 541 L 486 540 L 486 503 L 481 501 L 479 496 L 492 467 L 501 456 L 507 456 L 523 419 L 531 410 L 605 409 L 606 413 L 639 413 L 639 396 L 621 392 L 621 336 L 607 334 L 607 254 L 700 253 L 701 235 Z M 492 221 L 501 220 L 502 228 L 493 229 Z M 443 189 L 449 188 L 450 194 L 444 195 Z M 545 104 L 555 111 L 566 104 L 580 102 L 582 97 L 589 97 L 590 102 L 594 102 L 595 97 L 599 98 L 599 110 L 606 111 L 607 116 L 577 117 L 564 122 L 555 135 L 555 150 L 559 158 L 569 166 L 607 168 L 608 174 L 637 174 L 638 168 L 662 168 L 662 176 L 655 177 L 654 218 L 593 218 L 592 188 L 582 188 L 581 184 L 565 181 L 556 175 L 548 182 L 541 178 L 548 168 L 540 150 L 540 136 L 548 118 L 541 110 Z"/>
  </g>
  <g id="structure" />
  <g id="orange-overlays">
    <path class="site-orange" fill-rule="evenodd" d="M 453 245 L 453 193 L 466 180 L 529 180 L 538 189 L 529 180 L 465 180 L 453 192 Z"/>
  </g>
  <g id="green-overlays" />
</svg>
