<?xml version="1.0" encoding="UTF-8"?>
<svg xmlns="http://www.w3.org/2000/svg" viewBox="0 0 1024 1024" width="1024" height="1024" role="img">
  <title>simplified counter-strike radar map</title>
  <defs>
    <style><![CDATA[
      .map-base{fill:#35512b;stroke:#162513;stroke-width:4;stroke-linejoin:round;}
      .map-structure{fill:#6f746b;stroke:none;opacity:.82;}
      .site-orange{fill:#df790b;stroke:none;opacity:.95;}
      .site-green{fill:#1bad3f;stroke:none;opacity:.95;}
    ]]></style>
  </defs>
  <g id="base">
    <path class="map-base" fill-rule="evenodd" d="M 105 236 L 108 240 L 111 321 L 165 323 L 165 348 L 156 355 L 156 394 L 166 395 L 166 484 L 224 484 L 225 474 L 248 474 L 250 484 L 311 484 L 313 487 L 312 490 L 298 490 L 298 678 L 285 691 L 234 691 L 233 742 L 235 752 L 291 752 L 330 829 L 343 829 L 345 832 L 472 873 L 468 866 L 469 862 L 485 858 L 553 824 L 554 820 L 562 815 L 570 825 L 627 825 L 628 780 L 647 781 L 647 821 L 695 821 L 696 817 L 700 817 L 701 821 L 724 821 L 725 817 L 735 817 L 738 825 L 794 825 L 796 821 L 865 819 L 865 785 L 859 784 L 859 772 L 866 771 L 866 729 L 860 729 L 859 726 L 866 725 L 866 693 L 853 692 L 853 642 L 929 641 L 929 597 L 933 595 L 933 551 L 929 548 L 929 506 L 933 502 L 933 481 L 929 478 L 929 436 L 933 433 L 933 426 L 937 425 L 937 386 L 943 383 L 943 357 L 937 355 L 937 321 L 924 320 L 924 232 L 880 234 L 879 205 L 856 199 L 774 199 L 772 193 L 782 190 L 781 157 L 620 162 L 619 157 L 549 157 L 549 201 L 545 212 L 448 212 L 447 173 L 345 173 L 343 162 L 295 161 L 290 167 L 266 167 L 265 178 L 257 179 L 256 164 L 225 164 L 224 168 L 169 173 L 158 228 L 115 226 Z M 800 771 L 811 773 L 810 784 L 798 783 Z M 763 771 L 774 773 L 773 784 L 761 783 Z M 724 772 L 735 771 L 736 783 L 725 784 Z M 902 597 L 901 615 L 827 615 L 826 731 L 799 731 L 798 728 L 772 728 L 770 731 L 762 731 L 761 728 L 700 731 L 699 795 L 670 795 L 670 762 L 680 761 L 680 722 L 659 720 L 659 692 L 686 690 L 687 664 L 699 665 L 699 690 L 814 690 L 814 597 Z M 350 580 L 390 582 L 389 586 L 385 586 L 385 651 L 405 651 L 405 639 L 417 638 L 418 651 L 465 651 L 485 661 L 485 679 L 479 680 L 479 764 L 485 765 L 483 784 L 469 791 L 448 791 L 447 786 L 365 785 L 365 781 L 370 780 L 370 766 L 357 760 L 354 673 L 369 672 L 369 649 L 345 647 L 345 595 Z M 425 503 L 498 504 L 497 509 L 480 509 L 480 556 L 488 557 L 488 567 L 480 568 L 480 593 L 498 594 L 498 599 L 466 599 L 465 611 L 451 611 L 450 599 L 418 598 L 418 586 L 414 586 L 413 581 L 424 580 Z M 865 415 L 868 414 L 871 419 L 936 418 L 937 421 L 867 423 Z M 189 430 L 190 394 L 251 395 L 250 398 L 221 398 L 220 431 Z M 458 367 L 459 405 L 462 411 L 426 412 L 426 426 L 422 427 L 421 388 L 453 387 L 453 368 Z M 936 358 L 939 359 L 938 383 L 935 382 Z M 456 325 L 457 348 L 401 348 L 401 426 L 391 428 L 391 496 L 403 497 L 404 507 L 391 509 L 390 525 L 376 525 L 375 507 L 357 507 L 356 490 L 335 489 L 336 438 L 286 438 L 273 413 L 272 395 L 340 393 L 342 322 Z M 921 314 L 923 322 L 919 318 L 870 318 L 868 382 L 865 383 L 865 317 L 868 314 Z M 272 308 L 273 330 L 255 331 L 255 327 L 268 326 L 268 310 Z M 195 308 L 199 309 L 199 326 L 213 327 L 213 331 L 194 330 Z M 342 268 L 352 269 L 351 283 L 341 282 Z M 835 255 L 854 274 L 854 290 L 866 291 L 866 310 L 861 312 L 859 396 L 864 397 L 864 537 L 858 543 L 785 543 L 783 562 L 759 563 L 759 621 L 755 622 L 754 649 L 743 647 L 743 623 L 688 625 L 687 622 L 612 622 L 611 643 L 597 643 L 595 639 L 571 639 L 570 643 L 551 643 L 550 599 L 526 597 L 527 593 L 545 592 L 545 536 L 532 533 L 532 509 L 528 509 L 526 504 L 565 503 L 566 531 L 753 531 L 753 358 L 739 357 L 730 350 L 731 274 L 749 256 Z M 255 246 L 273 247 L 272 268 L 268 266 L 268 250 L 255 250 Z M 213 246 L 213 250 L 199 251 L 199 267 L 195 268 L 194 247 Z M 257 200 L 265 201 L 264 209 L 256 208 Z M 757 192 L 756 199 L 695 199 L 675 203 L 675 225 L 688 226 L 693 268 L 692 280 L 677 280 L 677 295 L 692 295 L 693 307 L 675 308 L 678 385 L 641 405 L 518 405 L 499 367 L 499 351 L 502 349 L 501 277 L 402 277 L 397 228 L 341 227 L 342 207 L 347 210 L 406 210 L 404 261 L 414 271 L 619 273 L 620 189 L 672 191 L 674 188 L 718 188 L 719 191 Z"/>
  </g>
  <g id="structure" />
  <g id="orange-overlays">
    <path class="site-orange" fill-rule="evenodd" d="M 521 770 L 522 809 L 568 809 L 523 809 Z"/>
  </g>
  <g id="green-overlays">
    <path class="site-green" fill-rule="evenodd" d="M 353 717 L 352 772 L 349 774 L 308 774 L 296 749 L 284 749 L 293 749 L 297 753 L 306 774 L 353 774 Z"/>
    <path class="site-green" fill-rule="evenodd" d="M 283 693 L 288 694 L 302 679 L 302 660 L 305 653 L 351 654 L 352 671 L 353 653 L 303 652 L 301 655 L 301 678 L 289 691 Z"/>
    <path class="site-green" fill-rule="evenodd" d="M 936 329 L 935 418 L 932 420 L 871 420 L 867 414 L 866 392 L 867 422 L 936 421 L 936 383 L 938 382 Z"/>
    <path class="site-green" fill-rule="evenodd" d="M 921 315 L 868 315 L 866 317 L 866 385 L 868 376 L 869 318 L 919 317 L 923 324 L 929 323 L 924 323 Z"/>
  </g>
</svg>
