<?xml version="1.0" encoding="UTF-8"?>
<svg xmlns="http://www.w3.org/2000/svg" viewBox="0 0 1024 1024" width="1024" height="1024" role="img">
  <title>simplified counter-strike radar map</title>
  <defs>
    <style><![CDATA[
      .map-base{fill:#35512b;stroke:#162513;stroke-width:4;stroke-linejoin:round;}
      .map-structure{fill:#6f746b;stroke:none;opacity:.82;}
      .site-orange{fill:#df790b;stroke:none;opacity:.95;}
      .site-green{fill:#1bad3f;stroke:none;opacity:.95;}
    ]]></style>
  </defs>
  <g id="base">
    <path class="map-base" fill-rule="evenodd" d="M 381 855 L 377 854 L 369 863 Z"/>
    <path class="map-base" fill-rule="evenodd" d="M 387 851 L 400 857 L 401 855 Z"/>
    <path class="map-base" fill-rule="evenodd" d="M 402 843 L 403 853 L 415 868 L 428 845 L 424 845 L 424 852 L 413 866 L 403 848 L 407 843 Z"/>
    <path class="map-base" fill-rule="evenodd" d="M 475 791 L 469 793 L 467 802 L 458 802 L 460 807 L 457 810 L 429 811 L 430 815 L 459 816 L 463 822 L 459 821 L 458 826 L 459 823 L 465 824 L 464 827 L 460 827 L 461 829 L 466 827 L 466 803 L 477 803 L 479 853 L 458 854 L 462 854 L 463 859 L 482 857 L 479 852 L 479 824 L 482 823 L 477 822 L 477 803 L 482 802 Z M 471 793 L 478 795 L 475 802 L 469 799 Z"/>
    <path class="map-base" fill-rule="evenodd" d="M 371 781 L 401 785 L 433 782 L 468 785 L 488 782 L 511 793 L 522 812 L 527 831 L 523 812 L 512 792 L 488 781 L 474 784 L 448 781 L 393 784 Z"/>
    <path class="map-base" fill-rule="evenodd" d="M 451 769 L 451 773 L 466 772 L 465 769 Z"/>
    <path class="map-base" fill-rule="evenodd" d="M 420 769 L 420 773 L 435 772 L 434 769 Z"/>
    <path class="map-base" fill-rule="evenodd" d="M 209 761 L 244 832 L 307 797 L 312 799 L 313 807 L 375 929 L 526 848 L 525 843 L 524 848 L 375 926 L 334 846 L 338 838 L 332 825 L 325 827 L 322 822 L 327 815 L 321 803 L 315 803 L 312 796 L 308 795 L 245 829 L 234 809 L 235 805 L 230 804 Z"/>
    <path class="map-base" fill-rule="evenodd" d="M 431 702 L 418 716 L 420 735 L 432 746 L 450 746 L 463 733 L 463 716 L 448 702 Z"/>
    <path class="map-base" fill-rule="evenodd" d="M 421 637 L 422 647 L 433 664 L 431 669 L 437 674 L 481 654 L 515 688 L 513 693 L 524 704 L 528 702 L 533 705 L 480 652 L 437 672 L 421 641 L 431 633 Z"/>
    <path class="map-base" fill-rule="evenodd" d="M 485 457 L 484 461 L 474 461 L 474 502 L 474 494 L 480 490 L 480 475 L 474 472 L 474 464 L 484 462 Z"/>
    <path class="map-base" fill-rule="evenodd" d="M 535 421 L 535 438 L 549 474 L 556 476 L 556 487 L 581 488 L 584 448 L 582 475 L 552 475 L 536 440 L 536 422 L 548 421 Z"/>
    <path class="map-base" fill-rule="evenodd" d="M 167 397 L 163 402 L 163 476 L 167 477 L 167 486 L 163 487 L 164 570 L 167 571 L 167 579 L 164 580 L 165 663 L 188 642 L 186 617 L 194 613 L 203 589 L 196 584 L 188 586 L 185 583 L 180 438 L 183 437 L 166 415 Z M 181 582 L 188 586 L 188 592 L 184 595 L 176 592 L 176 586 Z"/>
    <path class="map-base" fill-rule="evenodd" d="M 405 20 L 405 84 L 426 94 L 427 98 L 435 102 L 424 131 L 401 128 L 334 184 L 329 205 L 336 208 L 337 213 L 291 301 L 274 341 L 258 349 L 266 346 L 264 352 L 274 343 L 292 306 L 291 301 L 297 299 L 295 295 L 300 291 L 329 306 L 325 320 L 322 321 L 304 356 L 308 364 L 307 353 L 370 227 L 375 225 L 380 228 L 380 232 L 406 244 L 407 249 L 373 316 L 373 340 L 373 317 L 394 275 L 428 289 L 472 313 L 469 324 L 473 330 L 449 354 L 444 353 L 442 347 L 433 342 L 429 342 L 424 351 L 375 350 L 374 344 L 372 351 L 400 352 L 400 360 L 395 361 L 395 380 L 401 380 L 402 386 L 425 386 L 435 395 L 435 425 L 427 426 L 427 463 L 436 464 L 436 494 L 428 505 L 399 505 L 397 512 L 386 512 L 385 508 L 327 510 L 308 488 L 308 460 L 251 460 L 251 468 L 245 467 L 245 431 L 248 414 L 307 414 L 307 411 L 226 417 L 226 431 L 245 432 L 245 452 L 240 454 L 240 466 L 247 472 L 247 493 L 244 495 L 246 500 L 240 502 L 240 515 L 246 517 L 246 539 L 240 546 L 242 571 L 241 678 L 237 684 L 241 689 L 239 693 L 251 712 L 274 733 L 287 764 L 340 737 L 332 723 L 332 716 L 328 715 L 330 707 L 358 693 L 363 695 L 360 700 L 334 713 L 362 699 L 366 700 L 366 707 L 340 719 L 338 724 L 362 709 L 368 708 L 373 714 L 401 700 L 399 694 L 400 699 L 395 703 L 372 711 L 353 674 L 356 668 L 381 658 L 397 690 L 397 683 L 392 680 L 395 676 L 391 673 L 394 668 L 390 666 L 393 661 L 388 659 L 379 637 L 380 617 L 376 613 L 382 602 L 376 594 L 380 586 L 380 573 L 376 569 L 376 542 L 389 540 L 313 539 L 313 685 L 338 737 L 289 762 L 285 760 L 274 738 L 274 648 L 271 647 L 271 641 L 274 640 L 274 585 L 271 584 L 271 578 L 274 577 L 274 539 L 246 539 L 246 503 L 252 503 L 253 516 L 272 535 L 384 535 L 386 530 L 400 530 L 400 540 L 424 537 L 427 541 L 436 541 L 427 539 L 426 536 L 440 535 L 468 507 L 468 458 L 477 457 L 476 437 L 485 436 L 485 431 L 474 430 L 474 422 L 479 419 L 479 404 L 473 400 L 473 395 L 473 431 L 484 431 L 485 434 L 468 434 L 468 384 L 439 356 L 427 356 L 426 353 L 435 352 L 436 347 L 440 346 L 441 352 L 466 376 L 475 381 L 475 386 L 475 380 L 472 380 L 465 370 L 496 338 L 464 369 L 461 368 L 492 336 L 487 334 L 486 330 L 493 323 L 469 311 L 466 305 L 490 256 L 519 269 L 501 308 L 533 325 L 536 319 L 541 317 L 547 326 L 542 315 L 530 323 L 503 309 L 518 272 L 525 263 L 542 257 L 559 264 L 561 268 L 555 281 L 550 283 L 540 278 L 534 291 L 548 300 L 560 301 L 579 309 L 582 304 L 581 298 L 560 288 L 557 291 L 551 289 L 549 295 L 545 296 L 536 292 L 535 288 L 540 279 L 554 284 L 562 267 L 576 273 L 585 255 L 590 253 L 591 256 L 579 279 L 590 286 L 589 349 L 580 349 L 582 318 L 582 325 L 579 326 L 579 351 L 590 351 L 590 340 L 613 344 L 614 338 L 645 343 L 649 345 L 648 372 L 709 371 L 710 367 L 704 365 L 705 361 L 744 361 L 745 348 L 757 346 L 768 336 L 767 427 L 754 428 L 752 438 L 754 443 L 767 445 L 766 468 L 719 467 L 726 424 L 725 392 L 654 394 L 650 398 L 644 397 L 611 406 L 605 405 L 600 391 L 588 394 L 587 399 L 581 398 L 584 438 L 584 399 L 589 400 L 590 411 L 646 399 L 643 404 L 591 416 L 588 419 L 588 474 L 602 476 L 604 449 L 591 446 L 591 429 L 604 425 L 605 415 L 620 413 L 619 554 L 609 553 L 609 515 L 600 514 L 598 508 L 589 511 L 589 492 L 592 490 L 588 491 L 587 516 L 545 515 L 542 509 L 542 495 L 530 492 L 530 485 L 513 453 L 515 440 L 512 453 L 529 483 L 530 494 L 517 496 L 517 507 L 509 509 L 509 523 L 529 543 L 524 551 L 529 547 L 534 549 L 534 569 L 497 571 L 498 566 L 510 566 L 522 553 L 509 565 L 500 564 L 461 525 L 473 510 L 442 540 L 481 579 L 480 602 L 477 609 L 462 617 L 456 611 L 442 619 L 444 626 L 437 630 L 477 609 L 480 602 L 548 602 L 549 610 L 574 611 L 573 635 L 547 635 L 547 697 L 556 698 L 556 712 L 598 713 L 598 764 L 622 764 L 623 768 L 639 769 L 638 787 L 600 786 L 599 790 L 595 790 L 591 785 L 589 763 L 589 786 L 575 788 L 580 793 L 574 800 L 571 816 L 574 848 L 577 817 L 592 818 L 599 814 L 601 818 L 631 818 L 632 815 L 637 818 L 678 818 L 677 786 L 682 771 L 725 771 L 726 767 L 730 767 L 732 771 L 765 772 L 764 777 L 730 777 L 730 827 L 685 872 L 685 875 L 654 903 L 655 906 L 648 909 L 623 934 L 624 937 L 620 941 L 617 940 L 592 965 L 593 971 L 643 1023 L 657 1023 L 678 1001 L 678 997 L 684 995 L 709 970 L 709 966 L 716 963 L 740 939 L 740 935 L 747 932 L 814 864 L 849 864 L 855 857 L 855 847 L 851 846 L 851 784 L 846 783 L 846 775 L 850 771 L 854 773 L 869 756 L 868 751 L 872 747 L 886 747 L 887 751 L 929 748 L 929 733 L 934 732 L 934 702 L 929 702 L 928 699 L 847 699 L 820 645 L 821 641 L 826 640 L 830 647 L 918 647 L 918 550 L 879 473 L 840 470 L 840 411 L 854 410 L 908 294 L 833 256 L 818 280 L 784 280 L 783 243 L 679 243 L 625 218 L 618 229 L 607 225 L 600 233 L 599 226 L 586 220 L 589 215 L 606 209 L 594 202 L 595 88 L 505 90 L 497 80 L 496 64 L 474 63 L 481 53 L 493 53 L 493 27 L 430 27 L 429 22 Z M 359 688 L 358 691 L 330 704 L 328 709 L 324 707 L 326 701 L 355 687 Z M 534 572 L 537 573 L 536 582 L 533 581 Z M 445 537 L 449 536 L 487 576 L 482 577 L 445 540 Z M 451 532 L 454 531 L 486 565 L 483 566 Z M 606 515 L 609 516 L 609 555 L 696 555 L 697 538 L 800 539 L 799 580 L 763 598 L 764 603 L 757 606 L 759 614 L 743 624 L 748 632 L 762 633 L 762 674 L 792 736 L 819 736 L 819 740 L 731 740 L 730 743 L 726 743 L 725 740 L 626 739 L 626 677 L 598 676 L 598 578 L 606 575 Z M 651 398 L 726 404 L 724 440 L 649 435 Z M 812 372 L 813 409 L 817 410 L 817 470 L 799 472 L 800 514 L 697 515 L 697 469 L 768 468 L 768 373 Z M 705 358 L 740 357 L 741 360 L 706 361 Z M 742 347 L 745 348 L 744 361 L 741 360 Z M 701 339 L 705 340 L 704 360 L 701 359 Z M 485 333 L 486 336 L 457 363 L 459 356 Z M 477 329 L 479 333 L 451 359 L 450 356 Z M 686 317 L 689 318 L 689 339 L 698 339 L 698 343 L 685 341 Z M 744 314 L 757 315 L 766 326 L 764 339 L 754 347 L 742 346 L 733 335 L 735 321 Z M 702 300 L 741 301 L 741 311 L 733 317 L 728 327 L 731 341 L 741 350 L 740 357 L 706 357 L 705 340 L 689 338 L 689 320 L 701 318 Z M 698 298 L 701 299 L 700 307 L 697 306 Z M 742 297 L 745 298 L 744 314 L 741 313 Z M 413 276 L 418 274 L 451 290 L 453 298 L 450 299 L 413 281 Z M 747 243 L 783 244 L 783 264 L 764 267 L 761 271 L 769 281 L 768 325 L 759 316 L 746 313 L 745 298 L 736 296 L 731 291 L 731 252 L 744 251 Z M 518 243 L 527 250 L 522 263 L 519 262 L 514 249 Z M 615 241 L 616 245 L 593 293 L 592 326 L 589 327 L 588 292 L 612 242 Z M 431 221 L 434 217 L 444 216 L 487 234 L 494 219 L 498 218 L 513 238 L 510 242 L 512 245 L 508 245 L 513 259 L 510 260 L 490 250 L 478 249 L 432 226 Z M 569 161 L 572 162 L 572 172 L 566 173 L 565 168 Z M 467 161 L 496 175 L 496 214 L 487 232 L 459 220 L 465 197 L 453 189 Z M 464 158 L 465 162 L 456 182 L 449 190 L 448 186 L 461 159 Z M 470 154 L 474 153 L 495 163 L 496 168 L 493 169 L 471 158 Z M 530 149 L 535 148 L 548 155 L 558 138 L 570 142 L 572 151 L 558 185 L 593 201 L 594 205 L 600 206 L 601 209 L 595 212 L 592 209 L 586 214 L 567 205 L 566 201 L 557 200 L 555 195 L 545 194 L 545 174 L 526 172 L 527 168 L 533 169 L 539 159 Z M 495 137 L 503 137 L 521 146 L 523 150 L 516 150 L 497 141 Z M 506 103 L 507 110 L 492 142 L 488 143 L 475 137 L 478 127 L 473 124 L 474 117 L 491 105 Z M 442 74 L 448 78 L 449 115 L 440 125 L 439 136 L 468 150 L 469 154 L 459 155 L 441 192 L 406 197 L 405 200 L 411 201 L 413 211 L 419 212 L 421 216 L 429 216 L 426 227 L 486 257 L 467 301 L 462 303 L 455 299 L 464 274 L 448 267 L 462 275 L 460 282 L 420 264 L 415 268 L 422 265 L 455 281 L 455 290 L 414 270 L 410 277 L 400 273 L 398 269 L 410 246 L 383 232 L 373 223 L 370 224 L 334 295 L 331 306 L 301 292 L 299 288 L 340 210 L 331 204 L 335 185 L 377 149 L 430 155 L 433 138 L 427 129 L 434 108 L 440 103 L 408 84 L 406 70 L 424 69 L 436 76 Z M 405 65 L 407 62 L 424 62 L 426 68 L 406 69 Z M 426 58 L 432 57 L 433 62 L 454 61 L 455 77 L 441 72 L 434 74 L 427 70 Z"/>
  </g>
  <g id="structure" />
  <g id="orange-overlays">
    <path class="site-orange" fill-rule="evenodd" d="M 621 410 L 603 414 L 607 415 L 605 416 L 606 424 L 592 429 L 592 446 L 605 449 L 605 474 L 602 477 L 592 476 L 593 491 L 590 492 L 589 514 L 598 507 L 600 509 L 594 514 L 607 513 L 610 515 L 610 554 L 620 553 L 619 411 Z"/>
    <path class="site-orange" fill-rule="evenodd" d="M 479 331 L 475 330 L 461 344 L 451 358 Z"/>
    <path class="site-orange" fill-rule="evenodd" d="M 490 323 L 487 331 L 485 331 L 486 333 L 482 334 L 455 362 L 457 364 L 488 333 L 492 335 L 461 367 L 463 369 L 495 337 L 497 338 L 465 371 L 472 379 L 476 380 L 476 386 L 473 387 L 474 401 L 476 400 L 480 404 L 480 419 L 477 422 L 474 421 L 474 430 L 486 431 L 485 437 L 476 437 L 476 457 L 485 456 L 486 461 L 484 463 L 475 462 L 475 472 L 481 475 L 481 490 L 475 494 L 474 503 L 477 503 L 477 509 L 459 525 L 461 524 L 502 564 L 497 565 L 459 527 L 455 529 L 458 528 L 496 565 L 495 568 L 498 565 L 509 565 L 530 545 L 508 523 L 508 509 L 516 507 L 516 496 L 518 494 L 530 495 L 527 489 L 529 485 L 515 457 L 511 453 L 511 445 L 514 445 L 515 371 L 512 370 L 512 362 L 515 361 L 514 335 Z"/>
    <path class="site-orange" fill-rule="evenodd" d="M 555 292 L 552 291 L 550 295 Z"/>
    <path class="site-orange" fill-rule="evenodd" d="M 395 274 L 374 317 L 373 333 L 375 336 L 373 343 L 375 348 L 373 350 L 425 350 L 425 345 L 429 341 L 433 341 L 436 345 L 440 344 L 447 355 L 474 328 L 468 324 L 472 313 L 454 306 L 448 300 Z"/>
    <path class="site-orange" fill-rule="evenodd" d="M 556 204 L 556 208 L 568 210 Z"/>
    <path class="site-orange" fill-rule="evenodd" d="M 495 136 L 497 140 L 522 150 L 521 147 Z"/>
    <path class="site-orange" fill-rule="evenodd" d="M 471 124 L 470 127 L 476 130 L 474 125 L 472 126 Z"/>
    <path class="site-orange" fill-rule="evenodd" d="M 424 63 L 406 63 L 406 68 L 426 69 L 425 71 L 407 70 L 407 84 L 411 84 L 411 86 L 413 85 L 413 87 L 415 86 L 415 88 L 417 87 L 417 89 L 419 88 L 419 90 L 421 89 L 425 93 L 427 92 L 428 96 L 430 95 L 429 98 L 431 97 L 431 99 L 433 98 L 433 100 L 435 99 L 435 101 L 437 100 L 437 102 L 441 103 L 438 108 L 434 107 L 435 110 L 433 110 L 434 113 L 432 113 L 430 125 L 428 124 L 429 128 L 427 127 L 427 131 L 431 131 L 434 138 L 431 155 L 425 157 L 377 149 L 358 168 L 352 168 L 346 174 L 347 176 L 340 183 L 338 182 L 334 192 L 333 190 L 334 195 L 332 194 L 333 199 L 331 198 L 332 202 L 330 202 L 331 205 L 339 207 L 340 212 L 338 212 L 337 218 L 333 219 L 334 221 L 332 221 L 333 223 L 331 223 L 332 225 L 330 225 L 331 227 L 329 227 L 330 229 L 328 229 L 329 231 L 327 231 L 328 233 L 326 233 L 327 235 L 325 235 L 326 237 L 324 237 L 325 239 L 323 239 L 324 241 L 322 241 L 323 243 L 321 243 L 322 245 L 320 245 L 321 247 L 319 247 L 320 249 L 318 249 L 319 251 L 317 251 L 318 253 L 316 253 L 317 255 L 315 255 L 316 257 L 314 257 L 315 259 L 313 259 L 314 261 L 312 261 L 313 263 L 311 263 L 312 265 L 310 265 L 311 267 L 309 267 L 310 269 L 308 269 L 309 271 L 305 275 L 305 281 L 302 287 L 298 289 L 301 291 L 297 291 L 294 297 L 296 298 L 293 299 L 290 305 L 291 308 L 286 313 L 287 316 L 285 316 L 286 318 L 284 318 L 285 320 L 283 320 L 284 322 L 280 326 L 280 331 L 277 332 L 278 337 L 276 337 L 275 343 L 273 345 L 271 343 L 170 394 L 165 400 L 167 415 L 182 434 L 185 581 L 189 587 L 191 584 L 196 583 L 204 588 L 195 613 L 189 617 L 186 616 L 189 642 L 165 664 L 169 665 L 169 674 L 167 675 L 233 808 L 235 808 L 234 810 L 236 810 L 235 812 L 237 812 L 236 814 L 238 814 L 237 816 L 239 816 L 238 818 L 240 818 L 239 820 L 241 820 L 240 822 L 242 822 L 241 824 L 243 824 L 242 826 L 244 826 L 243 828 L 245 828 L 244 830 L 272 817 L 273 814 L 275 815 L 279 811 L 282 812 L 286 807 L 292 806 L 292 804 L 295 805 L 296 802 L 302 801 L 302 798 L 307 797 L 308 794 L 312 795 L 315 804 L 321 802 L 328 815 L 323 820 L 314 806 L 321 821 L 323 821 L 322 823 L 324 823 L 323 825 L 325 825 L 324 827 L 332 843 L 334 843 L 333 845 L 335 845 L 334 847 L 336 847 L 335 849 L 337 849 L 336 851 L 338 851 L 337 853 L 339 853 L 338 855 L 340 855 L 339 857 L 341 857 L 340 859 L 342 859 L 341 861 L 343 861 L 342 863 L 344 863 L 343 865 L 345 865 L 344 867 L 346 867 L 345 869 L 347 869 L 346 871 L 348 871 L 347 873 L 349 873 L 348 875 L 350 875 L 349 877 L 351 877 L 350 879 L 352 879 L 351 881 L 354 882 L 352 883 L 359 897 L 360 895 L 363 900 L 361 901 L 363 905 L 364 903 L 366 906 L 364 907 L 366 911 L 367 909 L 369 912 L 367 913 L 370 914 L 369 916 L 371 916 L 370 918 L 372 918 L 374 926 L 378 927 L 376 928 L 378 925 L 381 926 L 388 922 L 389 919 L 392 920 L 393 917 L 401 915 L 402 912 L 408 911 L 409 908 L 412 909 L 413 906 L 419 905 L 420 902 L 423 903 L 424 900 L 426 901 L 426 899 L 434 897 L 435 894 L 438 895 L 439 892 L 445 891 L 446 888 L 449 889 L 450 886 L 456 885 L 457 882 L 460 883 L 461 880 L 464 881 L 471 877 L 472 874 L 475 875 L 477 871 L 479 873 L 483 868 L 486 869 L 487 866 L 495 864 L 500 859 L 505 859 L 507 855 L 509 856 L 509 854 L 517 852 L 518 849 L 525 848 L 525 842 L 535 842 L 538 848 L 573 848 L 570 834 L 570 816 L 574 803 L 573 800 L 575 795 L 579 793 L 579 790 L 574 788 L 576 786 L 589 786 L 590 765 L 569 745 L 556 729 L 553 728 L 549 731 L 545 727 L 545 724 L 548 723 L 545 718 L 507 681 L 502 673 L 501 675 L 491 662 L 490 664 L 479 653 L 479 655 L 476 654 L 466 660 L 465 658 L 464 661 L 461 660 L 460 663 L 458 662 L 453 667 L 452 665 L 446 668 L 441 673 L 436 673 L 435 669 L 432 668 L 434 667 L 426 655 L 419 640 L 420 637 L 445 624 L 443 624 L 444 622 L 441 619 L 445 615 L 456 610 L 462 616 L 464 613 L 466 614 L 468 611 L 477 608 L 479 602 L 479 582 L 481 581 L 443 541 L 445 539 L 483 578 L 492 571 L 453 531 L 442 542 L 434 540 L 434 542 L 427 542 L 424 538 L 409 538 L 400 541 L 390 540 L 389 542 L 375 541 L 377 542 L 377 569 L 381 573 L 381 586 L 379 586 L 379 574 L 380 588 L 377 590 L 377 594 L 383 601 L 377 609 L 377 613 L 380 616 L 379 621 L 379 617 L 381 617 L 380 637 L 387 657 L 394 661 L 389 665 L 395 668 L 390 674 L 391 672 L 396 676 L 393 680 L 395 683 L 398 683 L 396 686 L 400 695 L 402 695 L 401 697 L 403 697 L 402 700 L 394 702 L 393 705 L 391 704 L 391 706 L 389 705 L 385 709 L 380 709 L 375 714 L 371 713 L 371 710 L 367 708 L 341 721 L 338 725 L 337 723 L 340 718 L 367 706 L 367 702 L 362 700 L 334 714 L 334 711 L 360 699 L 362 693 L 331 708 L 328 707 L 330 703 L 359 690 L 358 687 L 327 702 L 324 701 L 323 697 L 355 681 L 321 696 L 326 709 L 330 709 L 328 712 L 329 715 L 333 716 L 332 720 L 338 730 L 337 732 L 339 731 L 339 737 L 334 742 L 332 741 L 332 743 L 330 742 L 330 744 L 328 743 L 328 745 L 326 744 L 326 746 L 324 745 L 324 747 L 322 746 L 318 750 L 315 749 L 297 758 L 299 759 L 292 763 L 291 761 L 285 763 L 273 738 L 273 733 L 245 706 L 239 696 L 242 691 L 236 685 L 241 675 L 239 585 L 241 561 L 239 546 L 245 539 L 245 517 L 239 515 L 239 502 L 245 500 L 243 495 L 246 493 L 246 472 L 243 472 L 245 470 L 239 466 L 239 454 L 244 452 L 244 432 L 226 432 L 224 428 L 225 417 L 246 417 L 248 413 L 307 413 L 307 408 L 305 407 L 305 396 L 307 396 L 307 386 L 305 386 L 306 369 L 307 380 L 307 357 L 304 354 L 308 351 L 307 348 L 312 346 L 311 343 L 313 343 L 312 341 L 314 341 L 313 339 L 315 339 L 314 337 L 316 337 L 315 335 L 317 335 L 316 332 L 319 331 L 319 327 L 320 329 L 321 321 L 324 320 L 328 306 L 331 305 L 331 299 L 333 299 L 333 295 L 338 291 L 337 289 L 339 289 L 338 287 L 340 287 L 339 285 L 341 285 L 340 283 L 342 283 L 341 281 L 343 281 L 342 279 L 344 279 L 343 277 L 345 277 L 344 275 L 346 275 L 345 273 L 347 273 L 346 271 L 348 271 L 347 269 L 349 269 L 348 267 L 350 267 L 349 265 L 351 265 L 350 263 L 352 263 L 351 261 L 353 261 L 352 259 L 354 259 L 353 257 L 357 253 L 357 248 L 371 222 L 380 226 L 382 232 L 384 231 L 384 233 L 386 232 L 386 234 L 388 233 L 388 235 L 390 234 L 394 238 L 397 237 L 400 241 L 407 242 L 411 246 L 399 270 L 396 272 L 402 275 L 405 274 L 410 279 L 456 301 L 459 300 L 463 304 L 466 304 L 465 302 L 469 298 L 468 295 L 472 291 L 471 289 L 473 289 L 472 287 L 474 287 L 476 278 L 479 276 L 478 274 L 480 274 L 479 272 L 481 272 L 480 270 L 482 270 L 483 263 L 489 253 L 521 269 L 503 308 L 532 323 L 537 315 L 541 315 L 546 325 L 549 325 L 549 350 L 537 350 L 536 397 L 549 398 L 549 421 L 537 422 L 537 440 L 550 473 L 557 475 L 557 483 L 557 472 L 581 476 L 584 439 L 582 437 L 581 399 L 587 399 L 589 392 L 597 390 L 603 393 L 605 406 L 644 396 L 650 397 L 654 393 L 723 393 L 706 392 L 725 391 L 727 393 L 726 403 L 728 404 L 725 442 L 722 443 L 721 462 L 718 467 L 766 468 L 766 444 L 754 444 L 751 442 L 752 429 L 754 427 L 765 427 L 766 429 L 766 371 L 777 370 L 768 369 L 769 282 L 761 275 L 760 271 L 764 266 L 771 264 L 781 264 L 782 266 L 782 244 L 746 244 L 747 249 L 744 252 L 734 252 L 731 249 L 732 244 L 720 244 L 731 246 L 731 290 L 736 294 L 732 296 L 711 296 L 743 295 L 745 297 L 699 298 L 699 316 L 686 318 L 686 341 L 700 341 L 702 343 L 703 360 L 744 360 L 744 362 L 705 362 L 705 365 L 711 367 L 709 372 L 648 373 L 647 348 L 650 345 L 593 335 L 591 332 L 592 293 L 618 237 L 628 221 L 625 219 L 589 292 L 590 335 L 612 338 L 614 344 L 590 341 L 590 350 L 580 351 L 579 327 L 581 326 L 582 305 L 577 310 L 558 301 L 548 301 L 547 298 L 533 291 L 540 277 L 553 283 L 561 266 L 540 256 L 541 259 L 525 264 L 524 262 L 529 251 L 521 269 L 511 246 L 528 237 L 589 215 L 590 212 L 604 209 L 602 206 L 597 206 L 597 204 L 594 206 L 593 204 L 595 203 L 557 185 L 562 174 L 561 172 L 564 170 L 564 165 L 567 163 L 567 159 L 569 159 L 568 156 L 571 154 L 571 144 L 553 135 L 552 141 L 545 152 L 542 153 L 542 151 L 536 150 L 533 147 L 530 149 L 540 159 L 534 169 L 530 170 L 528 167 L 527 172 L 545 173 L 545 193 L 555 194 L 556 200 L 495 171 L 495 164 L 472 153 L 469 156 L 478 160 L 478 162 L 466 157 L 468 151 L 462 150 L 460 147 L 438 136 L 439 125 L 448 115 L 449 77 L 440 72 L 443 74 L 437 76 L 432 75 L 432 73 L 430 74 L 430 72 L 428 73 L 428 71 L 426 72 Z M 458 855 L 460 853 L 480 853 L 481 856 L 482 853 L 483 857 L 479 859 L 476 857 L 460 858 Z M 380 853 L 382 856 L 370 865 L 368 863 L 369 860 L 377 853 Z M 386 851 L 390 849 L 402 855 L 400 858 L 388 854 Z M 427 843 L 429 845 L 428 849 L 426 849 L 427 851 L 424 852 L 425 854 L 419 860 L 420 862 L 416 865 L 417 867 L 413 869 L 400 846 L 402 844 L 413 845 L 414 843 L 419 843 L 420 845 L 425 845 Z M 459 827 L 463 826 L 465 828 L 461 830 Z M 329 824 L 333 825 L 339 838 L 334 843 L 326 828 Z M 477 801 L 482 803 L 482 822 L 480 824 L 476 823 Z M 470 802 L 467 803 L 466 828 L 464 827 L 465 821 L 463 824 L 460 824 L 458 821 L 459 817 L 430 816 L 428 813 L 430 809 L 457 809 L 461 800 Z M 467 795 L 470 791 L 471 793 L 476 793 L 477 791 L 481 800 L 472 803 L 467 800 Z M 348 778 L 351 773 L 353 775 L 532 774 L 533 830 L 527 832 L 524 830 L 523 814 L 522 816 L 520 808 L 518 808 L 519 806 L 515 803 L 515 799 L 512 798 L 514 797 L 511 796 L 512 794 L 508 790 L 500 789 L 495 784 L 493 786 L 492 783 L 487 783 L 487 781 L 485 783 L 484 781 L 481 782 L 483 784 L 479 782 L 477 784 L 477 782 L 471 785 L 469 783 L 464 785 L 459 782 L 455 784 L 452 782 L 450 784 L 449 781 L 445 783 L 443 781 L 441 783 L 439 781 L 437 783 L 427 782 L 428 784 L 425 784 L 425 782 L 420 784 L 418 782 L 412 783 L 413 785 L 410 785 L 410 783 L 408 785 L 403 783 L 397 785 L 397 783 L 390 782 L 389 784 L 387 782 L 384 784 L 384 782 L 380 781 L 379 783 L 377 781 L 375 783 L 372 781 L 362 783 L 361 781 L 353 787 Z M 450 769 L 465 768 L 467 772 L 465 774 L 451 774 Z M 419 769 L 434 768 L 436 772 L 434 774 L 420 774 Z M 223 767 L 227 769 L 227 772 L 224 774 L 221 772 Z M 215 740 L 218 740 L 220 743 L 217 746 L 213 744 Z M 203 707 L 206 711 L 201 713 L 199 710 Z M 431 701 L 448 701 L 454 704 L 464 716 L 464 733 L 450 747 L 442 749 L 432 747 L 419 735 L 417 716 L 425 705 L 429 704 L 429 702 L 431 703 Z M 515 689 L 527 701 L 524 705 L 512 693 Z M 191 671 L 194 676 L 190 678 L 188 673 Z M 202 571 L 207 573 L 205 577 L 200 574 Z M 451 533 L 490 571 L 487 575 L 448 536 Z M 193 526 L 197 528 L 195 532 L 190 530 Z M 196 478 L 202 481 L 198 485 L 194 482 Z M 197 385 L 200 387 L 198 392 L 194 389 Z M 732 343 L 738 347 L 736 348 Z M 704 340 L 706 340 L 706 356 L 740 356 L 740 350 L 737 348 L 739 347 L 742 349 L 742 358 L 705 359 Z M 729 323 L 730 340 L 727 333 Z M 689 318 L 701 319 L 690 320 L 690 338 L 702 337 L 704 340 L 688 339 Z M 736 314 L 733 319 L 732 317 Z M 700 300 L 741 299 L 742 312 L 739 312 L 740 301 L 702 301 L 701 319 Z M 745 297 L 746 313 L 752 312 L 759 315 L 767 325 L 766 338 L 757 347 L 746 348 L 745 361 L 744 348 L 734 341 L 731 334 L 734 320 L 744 313 Z M 453 281 L 456 280 L 462 284 L 457 289 L 456 283 Z M 463 273 L 465 275 L 461 281 L 460 274 Z M 413 274 L 416 271 L 457 291 L 453 297 L 451 291 Z M 422 266 L 425 265 L 440 273 L 437 274 Z M 514 258 L 515 264 L 511 261 Z M 504 258 L 507 257 L 512 260 L 509 261 Z M 422 257 L 423 254 L 426 256 Z M 477 249 L 480 248 L 488 252 L 486 254 Z M 456 242 L 461 243 L 458 244 Z M 449 239 L 452 238 L 457 241 L 454 242 Z M 428 224 L 436 227 L 433 228 Z M 625 219 L 627 221 L 623 227 L 622 224 Z M 432 218 L 433 216 L 439 217 Z M 572 208 L 575 207 L 582 211 L 579 212 Z M 562 203 L 565 201 L 567 204 Z M 463 198 L 455 218 L 443 213 L 421 217 L 419 215 L 420 212 L 415 213 L 412 211 L 413 208 L 411 208 L 412 204 L 410 204 L 410 201 L 404 200 L 406 196 L 421 197 L 421 195 L 434 194 L 434 192 L 438 193 L 438 191 L 445 191 Z M 448 177 L 449 180 L 446 185 L 445 182 Z M 450 219 L 457 219 L 458 217 L 470 225 L 485 232 L 487 231 L 495 214 L 495 175 L 487 171 L 487 169 L 571 209 L 570 211 L 582 215 L 515 242 L 512 241 L 513 237 L 511 237 L 511 234 L 509 234 L 500 220 L 496 218 L 487 235 Z M 457 166 L 458 169 L 455 174 L 454 171 Z M 468 159 L 454 191 L 447 191 L 447 187 L 451 190 L 464 159 Z M 545 152 L 550 151 L 549 154 Z M 447 76 L 449 77 L 448 83 Z"/>
  </g>
  <g id="green-overlays">
    <path class="site-green" fill-rule="evenodd" d="M 680 888 L 654 914 L 652 913 L 631 934 L 632 936 L 626 942 L 623 940 L 625 942 L 623 945 L 621 944 L 599 965 L 599 969 L 603 973 L 604 971 L 607 974 L 605 975 L 648 1018 L 654 1017 L 729 939 Z M 606 975 L 611 978 L 609 979 Z M 680 890 L 680 895 L 682 892 L 684 893 L 686 898 L 726 936 L 725 939 L 727 937 L 728 939 L 723 944 L 721 943 L 719 945 L 721 943 L 722 945 L 718 949 L 717 947 L 703 959 L 686 978 L 680 981 L 651 1010 L 647 1010 L 609 972 L 646 1009 L 645 1011 L 605 970 L 607 969 L 608 961 L 626 943 L 628 944 L 626 943 L 629 940 L 631 941 L 629 940 L 633 936 L 635 938 L 655 918 L 654 915 Z"/>
  </g>
</svg>
